#N canvas 285 42 631 595 10;
#X obj 12 327 dac~;
#X msg 116 265 1;
#X msg 150 266 0;
#X msg 38 171 list 1509 0 518 0 779 0 2921 0 3582 0 6230 0 7231 0 0
0 200 30 0 60 0 0 0 0 41 48 68 63 53 87 50 61 42 80 38 80 5 0 59 60
;
#X msg 46 226 f0 1000;
#X msg 107 226 f1 2000;
#X text 17 358 NOTES:;
#X text 333 561 Bryan Jurish <moocow@ling.uni-potsdam.de>;
#X text 179 265 Enable/Disable synthesis;
#X text 45 4 klatt~ : Klatt Cascade-Parallel Formant Speech Synthesis
;
#X obj 116 320 print klatt-new-frame;
#X floatatom 23 146 5 0 0;
#X msg 381 276 \; pd dsp 1;
#X msg 381 309 \; pd dsp 0;
#X text 12 30 KEYWORD ARGUMENTS:;
#X text 454 59 2 - Enable/Disable;
#X text 67 146 FLOAT: fundamental frequency (F0) adjustment bodge (Hz)
;
#X text 463 182 LIST: set whole frame;
#X text 31 374 IF the "ncasc" argument is 0 (the default) \, the all-parallel
synthesis model will be used. Other values still sound icky.;
#X obj 83 523 holmes;
#X text 14 505 SEE ALSO:;
#X text 45 46 mspf FLOAT - milliseconds per frame [10];
#X text 37 60 ncasc FLOAT - number of cascades [0];
#X text 23 74 verbose FLOAT - enable parwave warnings [0];
#X text 21 104 flutter FLOAT - f0 flutter in percent [0];
#X text 50 89 gls FLOAT - glottal source (0=natural \, 1=impulsive)
[0];
#X text 454 43 1 - Control messages;
#X text 457 95 1 - Signal out;
#X obj 38 523 ratts;
#X text 139 518 D. H. Klatt \, "Software for a cascade/parallel formant
synthesizer." \, Journal of the Acousitcal Society of America 67(3)
\, March 1980;
#X text 15 463 ACKNOWLEDGEMENTS:;
#X text 34 480 Based on code by Jon Iles and Nick Ing-Simmons.;
#X text 30 421 The "mspf" argument is just a guideline - frame-length
is rounded up to a multiple of the Pd blocksize.;
#X text 436 31 INLETS:;
#X text 439 84 OUTLETS:;
#X text 457 108 2 - bang on new frame;
#X obj 23 296 klatt~ mspf 10;
#X text 361 229 Anything else: set named parameters;
#X msg 175 225 mspf 500;
#X connect 1 0 36 1;
#X connect 2 0 36 1;
#X connect 3 0 36 0;
#X connect 4 0 36 0;
#X connect 5 0 36 0;
#X connect 11 0 36 0;
#X connect 36 0 0 0;
#X connect 36 0 0 1;
#X connect 38 0 36 0;
