#N canvas 429 31 730 790 10;
#X floatatom 113 143 5 0 0 0 - - -;
#X floatatom 148 82 5 0 0 0 - - -;
#X obj -21 66 output~;
#X text 186 83 frequency;
#X text 147 141 confidence;
#X floatatom 95 -275 5 0 100 0 - - -;
#X text 158 -141 mix;
#X floatatom 108 -211 5 0 100 0 - - -;
#X text 170 -82 shift;
#X floatatom 120 -142 5 0 100 0 - - -;
#X floatatom 134 -84 5 -12 12 0 - - -;
#X floatatom 146 -44 5 -100 100 0 - - -;
#X text 181 -43 tune;
#X text 142 -210 glide;
#X text 133 -275 correction amount;
#X obj 95 -253 / 100;
#X obj 120 -120 / 100;
#X obj 108 -187 * 5;
#X obj 146 -17 / 100;
#X text -126 -370 lydian-dominant (jazzy);
#X text -119 -347 harmonic minor;
#X text -123 -323 chromatic blues;
#X text -95 -302 whole-tones scale;
#X text -101 -281 diminished scale;
#X text -77 -259 pentatonic;
#X text -85 -235 pentatonic blues;
#X text -130 -390 middle-east-like minor;
#X msg -319 -390 0 1 4 5 7 8 11 12 13 16 17 19;
#X text -138 -411 major;
#X msg -324 -411 0 2 4 5 7 9 11 12 14 16 17 19;
#X msg -311 -368 0 2 4 6 7 9 10 12 14 16 18 19;
#X msg -303 -344 0 2 3 5 7 8 11 12 14 15 17 19;
#X msg -294 -323 0 2 3 4 5 6 7 9 10 11 12 14;
#X msg -279 -279 0 2 3 5 6 8 9 11 12 14 15 17;
#X msg -270 -256 0 2 4 7 9 12 14 16 19 21 24 26;
#X msg -264 -234 0 2 3 4 7 8 9 12 14 15 16 19;
#X msg -287 -301 0 0 2 2 4 4 6 6 8 8 10 10;
#X msg -166 36 glide \$1;
#X floatatom -166 5 5 0 0 0 - - -;
#X msg 273 36 tune \$1;
#X floatatom 278 3 5 0 0 0 - - -;
#X msg -257 81 1 2 3;
#X msg -211 -94 1 2 3;
#X msg -266 144 list \$1 \$2 \$3 \$4 \$5 \$6 \$7 \$8 \$9 \$10 \$11
\$12;
#X text -135 -38 pentatonic blues;
#X msg -314 -37 0 2 3 4 7 8 9 12 14 15 16 19;
#X obj 83 -343 misc/playsound~;
#X obj 83 13 autotuned~;
#N canvas 0 22 323 170 docs 1;
#X text -246 32 this is based on the LADSPA autotalent plugin;
#X text -245 66 please submit any changes to code or help patch: maxus@deterritorialized.com
;
#X text -244 118 appologies for the total mess;
#X restore 84 -390 pd docs;
#X text -265 199 maxus germanus 2011 maxus.deterritorialized.com;
#X connect 5 0 15 0;
#X connect 7 0 17 0;
#X connect 9 0 16 0;
#X connect 10 0 47 4;
#X connect 11 0 18 0;
#X connect 15 0 47 1;
#X connect 16 0 47 3;
#X connect 17 0 47 2;
#X connect 18 0 47 5;
#X connect 27 0 47 0;
#X connect 29 0 47 0;
#X connect 30 0 47 0;
#X connect 31 0 47 0;
#X connect 32 0 47 0;
#X connect 33 0 47 0;
#X connect 34 0 47 0;
#X connect 35 0 47 0;
#X connect 36 0 47 0;
#X connect 37 0 47 0;
#X connect 38 0 37 0;
#X connect 39 0 47 0;
#X connect 40 0 39 0;
#X connect 41 0 43 0;
#X connect 42 0 47 0;
#X connect 43 0 47 0;
#X connect 45 0 43 0;
#X connect 46 0 47 0;
#X connect 47 0 2 1;
#X connect 47 0 2 0;
#X connect 47 1 0 0;
#X connect 47 2 1 0;
