#N canvas 333 88 481 563 10;
#X text 151 539 Bryan Jurish <moocow@ling.uni-potsdam.de>;
#X text 19 460 SEE ALSO:;
#X obj 16 383 dac~;
#X text 253 270 Click here to start;
#X text 15 30 INLETS:;
#X text 33 44 1 - control messages;
#X text 223 30 OUTLETS:;
#X msg 298 351 \; holmes-play 0;
#X obj 36 479 ratts;
#X text 33 498 J.N. Holmes \, I. Mattingly \, and J. Shearme \, "Speech
synthesis by rule" \, Language and Speech 7 \, 1964;
#X msg 296 287 \; pd dsp 1 \; holmes-play 1;
#X msg 16 99 add h@loU;
#X text 102 100 "add" adds a new utterance;
#X obj 83 479 holmes-phones;
#X obj 16 362 klatt~;
#X obj 25 290 r holmes-play;
#X obj 25 310 metro 10;
#X msg 26 134 add2 r&ts;
#X text 110 133 "add2" adds elements to current utterance;
#X msg 31 174 list . test wVn tu Tri;
#X text 206 174 "list" is just like "add2";
#X text 239 45 1 - Holmes element lists;
#X obj 189 480 holmes;
#X text 67 4 phones2holmes : phone-string to Holmes-element converter
;
#X text 211 189 A "." symbol means end-of-utterance.;
#X obj 16 242 phones2holmes f;
#X obj 16 339 holmes;
#X msg 89 310 clear;
#X text 19 414 ACKNOWLEDGEMENTS:;
#X text 38 431 Based on code by Nick Ing-Simmons.;
#X connect 11 0 25 0;
#X connect 14 0 2 0;
#X connect 14 0 2 1;
#X connect 15 0 16 0;
#X connect 16 0 26 0;
#X connect 17 0 25 0;
#X connect 19 0 25 0;
#X connect 25 0 26 0;
#X connect 26 0 14 0;
#X connect 27 0 26 0;
