#N canvas 321 62 489 474 10;
#X obj 389 5 ratts;
#X text 57 4 ratts~ : full text-to-speech abstraction using;
#X text 13 23 SYNTAX:;
#X text 171 23 INLETS:;
#X text 181 38 1 - text;
#X text 26 38 ratts~ DICTNAME;
#X text 298 26 OUTLETS:;
#X text 313 42 1 - speech signal;
#X obj 338 385 klatt~ mspf 5;
#X obj 338 408 outlet~;
#X text 313 56 2 - bang on empty;
#X obj 410 410 outlet;
#X obj 31 239 rattshread \$1-dict;
#X obj 32 137 inlet;
#X obj 261 152 inlet;
#X obj 338 155 inlet;
#X obj 49 184 number2text;
#X obj 83 264 guessphones;
#X obj 31 289 phones2holmes;
#X obj 261 295 metro 10;
#X text 181 53 2 - speed (ms);
#X text 181 69 3 - f0 (float);
#X obj 261 215 select 0;
#X text 181 84 4 - holmes on/off;
#X text 181 99 5 - klatt~ on/off;
#X obj 382 156 inlet;
#X obj 424 157 inlet;
#X obj 31 263 pack s;
#X obj 32 160 rattstok;
#X obj 32 217 toupper;
#X text 167 447 Bryan Jurish <moocow@ling.uni-potsdam.de>;
#X obj 132 184 spellout;
#X msg 198 184 add2 .;
#X obj 262 323 holmes;
#X connect 8 0 9 0;
#X connect 12 0 27 0;
#X connect 12 1 17 0;
#X connect 13 0 28 0;
#X connect 14 0 22 0;
#X connect 15 0 8 0;
#X connect 16 0 29 0;
#X connect 17 0 18 0;
#X connect 18 0 33 0;
#X connect 19 0 33 0;
#X connect 22 0 19 1;
#X connect 22 1 19 1;
#X connect 25 0 19 0;
#X connect 26 0 8 1;
#X connect 27 0 18 0;
#X connect 28 0 29 0;
#X connect 28 1 16 0;
#X connect 28 2 31 0;
#X connect 28 3 32 0;
#X connect 29 0 12 0;
#X connect 31 0 29 0;
#X connect 32 0 33 0;
#X connect 33 0 8 0;
#X connect 33 1 11 0;
