#N canvas 366 28 441 420 10;
#X text 29 2 toupper \, tolower : case-normalization for PD symbols
;
#X text 144 397 Bryan Jurish <moocow@ling.uni-potsdam.de>;
#X text 39 20 INLETS:;
#X text 203 18 OUTLETS:;
#X text 55 34 1 - any PD message;
#X text 219 34 1 - case-converted messages;
#X text 205 79 floats pass unchanged;
#X text 205 167 symbols get case-converted;
#X text 204 286 ... and "list" is untouched;
#X text 207 266 multiword messages remain intact;
#X obj 385 370 ratts;
#X floatatom 61 82 5 0 0;
#X obj 35 106 toupper;
#X obj 93 106 tolower;
#X floatatom 35 129 5 0 0;
#X floatatom 93 129 5 0 0;
#X obj 25 193 toupper;
#X obj 111 193 tolower;
#X symbolatom 60 170 10 0 0;
#X symbolatom 111 214 10 0 0;
#X symbolatom 25 214 10 0 0;
#X msg 72 286 list FOO bar;
#X obj 23 323 toupper;
#X obj 122 324 tolower;
#X obj 122 344 print tolower;
#X obj 23 344 print toupper;
#X msg 57 266 mOo iS a CoW;
#X text 359 370 In:;
#X connect 11 0 12 0;
#X connect 11 0 13 0;
#X connect 12 0 14 0;
#X connect 13 0 15 0;
#X connect 16 0 20 0;
#X connect 17 0 19 0;
#X connect 18 0 16 0;
#X connect 18 0 17 0;
#X connect 21 0 22 0;
#X connect 21 0 23 0;
#X connect 22 0 25 0;
#X connect 23 0 24 0;
#X connect 26 0 22 0;
#X connect 26 0 23 0;
