#N canvas 29 29 440 551 10;
#X text 20 10 holmes-features.pd : index constants for holmes-feat
;
#X text 120 28 Bryan Jurish <moocow@ling.uni-potsdam.de>;
#X obj 35 50 loadbang;
#X obj 170 70 f 1;
#X obj 205 70 v hf.alv;
#X obj 170 90 f 2;
#X obj 205 90 v hf.apr;
#X obj 170 110 f 3;
#X obj 205 110 v hf.bck;
#X obj 170 130 f 4;
#X obj 205 130 v hf.blb;
#X obj 170 150 f 5;
#X obj 205 150 v hf.cnt;
#X obj 170 170 f 6;
#X obj 205 170 v hf.dnt;
#X obj 170 190 f 7;
#X obj 205 190 v hf.fnt;
#X obj 170 210 f 8;
#X obj 205 210 v hf.frc;
#X obj 170 230 f 9;
#X obj 205 230 v hf.glt;
#X obj 170 250 f 10;
#X obj 205 250 v hf.hgh;
#X obj 170 270 f 11;
#X obj 205 270 v hf.lat;
#X obj 170 290 f 12;
#X obj 205 290 v hf.lbd;
#X obj 170 310 f 13;
#X obj 205 310 v hf.lbv;
#X obj 170 330 f 14;
#X obj 205 330 v hf.lmd;
#X obj 170 350 f 15;
#X obj 205 350 v hf.low;
#X obj 170 370 f 16;
#X obj 205 370 v hf.mdl;
#X obj 170 390 f 17;
#X obj 205 390 v hf.nas;
#X obj 170 410 f 18;
#X obj 205 410 v hf.pal;
#X obj 170 430 f 19;
#X obj 205 430 v hf.pla;
#X obj 170 450 f 20;
#X obj 205 450 v hf.rnd;
#X obj 170 470 f 21;
#X obj 205 470 v hf.rzd;
#X obj 170 490 f 22;
#X obj 205 490 v hf.smh;
#X obj 170 510 f 23;
#X obj 205 510 v hf.stp;
#X obj 170 530 f 24;
#X obj 205 530 v hf.umd;
#X obj 170 550 f 25;
#X obj 205 550 v hf.unr;
#X obj 170 570 f 26;
#X obj 205 570 v hf.vcd;
#X obj 170 590 f 27;
#X obj 205 590 v hf.vel;
#X obj 170 610 f 28;
#X obj 205 610 v hf.vls;
#X obj 170 630 f 29;
#X obj 205 630 v hf.vwl;
#X connect 2 0 3 0;
#X connect 3 0 4 0;
#X connect 2 0 5 0;
#X connect 5 0 6 0;
#X connect 2 0 7 0;
#X connect 7 0 8 0;
#X connect 2 0 9 0;
#X connect 9 0 10 0;
#X connect 2 0 11 0;
#X connect 11 0 12 0;
#X connect 2 0 13 0;
#X connect 13 0 14 0;
#X connect 2 0 15 0;
#X connect 15 0 16 0;
#X connect 2 0 17 0;
#X connect 17 0 18 0;
#X connect 2 0 19 0;
#X connect 19 0 20 0;
#X connect 2 0 21 0;
#X connect 21 0 22 0;
#X connect 2 0 23 0;
#X connect 23 0 24 0;
#X connect 2 0 25 0;
#X connect 25 0 26 0;
#X connect 2 0 27 0;
#X connect 27 0 28 0;
#X connect 2 0 29 0;
#X connect 29 0 30 0;
#X connect 2 0 31 0;
#X connect 31 0 32 0;
#X connect 2 0 33 0;
#X connect 33 0 34 0;
#X connect 2 0 35 0;
#X connect 35 0 36 0;
#X connect 2 0 37 0;
#X connect 37 0 38 0;
#X connect 2 0 39 0;
#X connect 39 0 40 0;
#X connect 2 0 41 0;
#X connect 41 0 42 0;
#X connect 2 0 43 0;
#X connect 43 0 44 0;
#X connect 2 0 45 0;
#X connect 45 0 46 0;
#X connect 2 0 47 0;
#X connect 47 0 48 0;
#X connect 2 0 49 0;
#X connect 49 0 50 0;
#X connect 2 0 51 0;
#X connect 51 0 52 0;
#X connect 2 0 53 0;
#X connect 53 0 54 0;
#X connect 2 0 55 0;
#X connect 55 0 56 0;
#X connect 2 0 57 0;
#X connect 57 0 58 0;
#X connect 2 0 59 0;
#X connect 59 0 60 0;
