#N canvas 119 2 453 388 10;
#X obj 70 216 textfile;
#X text 32 16 Inlets:;
#X text 48 30 1 - control messages;
#X text 210 18 Outlets:;
#X text 229 30 1 - frame-lists;
#X text 154 51 Control Messages:;
#X text 169 67 FILENAME : read filename;
#X text 182 81 rewind : rewind;
#X text 197 108 bang : start playing / next frame;
#X obj 70 135 inlet;
#X text 197 94 stop : stop playing;
#X text 229 41 2 - bang when done;
#X obj 64 275 outlet;
#X obj 121 277 outlet;
#X obj 5 226 delay \$1;
#X obj 70 240 t b l;
#X text 16 3 klatt-parfile MSEC_PER_FRAME : read klatt parameter files
;
#X msg 70 186 bang;
#X msg 259 182 read \$1 cr \, rewind;
#X obj 69 159 route stop start rewind bang;
#X msg 171 183 rewind;
#X msg 5 186 stop;
#X obj 331 137 inlet;
#X connect 0 0 15 0;
#X connect 0 1 13 0;
#X connect 9 0 19 0;
#X connect 14 0 0 0;
#X connect 15 0 14 0;
#X connect 15 1 12 0;
#X connect 17 0 0 0;
#X connect 18 0 0 0;
#X connect 19 0 21 0;
#X connect 19 1 17 0;
#X connect 19 2 20 0;
#X connect 19 3 0 0;
#X connect 19 4 18 0;
#X connect 20 0 0 0;
#X connect 21 0 14 0;
#X connect 22 0 14 1;
