#N canvas 44 21 684 215 10;
#X obj 82 57 r \$1-sl-s;
#X obj 190 59 r \$1-f-s;
#X obj 105 128 outlet;
#X obj 159 155 s \$1-sl-r;
#X msg 159 130 set \$1;
#X obj 288 58 inlet;
#X msg 32 129 set \$1;
#X obj 32 153 s \$1-f-r;
#X text 433 9 Inlets:;
#X text 454 19 1 - any value;
#X text 454 50 1 - slider out;
#X text 433 36 Outlets:;
#X text 431 91 Sends/Receives assumed:;
#X text 37 21 Syntax : sflink BASENAME;
#X text 453 108 BASENAME-sl-s : slider output;
#X text 17 9 sflink.pd : link sliders and numbox;
#X text 453 122 BASENAME-sl-r : slider input;
#X text 457 140 BASENAME-f-s : numbox output;
#X text 457 153 BASENAME-f-r : numbox input;
#X obj 233 129 outlet;
#X text 454 61 2 - numbox/inlet out;
#X text 464 176 BASENAME-in : inlet send;
#X obj 333 57 r \$1-in;
#X connect 0 0 2 0;
#X connect 0 0 6 0;
#X connect 1 0 4 0;
#X connect 1 0 19 0;
#X connect 4 0 3 0;
#X connect 5 0 6 0;
#X connect 5 0 4 0;
#X connect 5 0 19 0;
#X connect 6 0 7 0;
#X connect 22 0 19 0;
#X connect 22 0 4 0;
#X connect 22 0 6 0;
