#N canvas 247 40 571 527 10;
#X text 259 502 Bryan Jurish <moocow@ling.uni-potsdam.de>;
#X text 30 390 ACKNOWLEDGEMENTS:;
#X obj 39 478 ratts;
#X obj 184 478 rattshwrite x;
#X text 30 460 SEE ALSO:;
#X text 41 405 The "rattshash" \, "rattshread" \, and "rattshwrite"
externals are based on the "maphash" object by Orm Finnendahl \, itself
based on the "mapper" object by Travis Newhouse.;
#X text 369 19 INLETS:;
#X text 380 32 1 - control messages;
#X text 371 53 OUTLETS:;
#X text 18 17 ARGUMENTS:;
#X obj 43 279 rattshwrite rattshwrite-help;
#X obj 43 302 print rattshwrite-help;
#X obj 87 478 rattshash x;
#X text 64 1 rattshwrite : (auto-)resizable hash table writer;
#X text 382 68 1 - values;
#X text 46 30 NAME : name of rattshash object (symbol);
#X msg 62 160 del 0;
#X msg 63 177 del moo;
#X text 228 169 "del" deletes association for given key;
#X msg 68 221 set rattshash-help;
#X msg 70 241 set rattshwrite-help;
#X text 234 229 "set" sets the destination table name;
#X msg 44 106 list 0 zero;
#X msg 49 128 moo bovine;
#X text 226 107 "list" sets associations for keys;
#X text 228 127 ... ditto for "anything";
#X obj 300 373 rattshash rattshwrite-help;
#X obj 300 318 rattshread rattshwrite-help;
#X msg 300 296 dump;
#X obj 300 341 print rattshwrite-help-contents;
#X text 279 279 Click here to see table contents;
#X connect 10 0 11 0;
#X connect 16 0 10 0;
#X connect 17 0 10 0;
#X connect 19 0 10 0;
#X connect 20 0 10 0;
#X connect 22 0 10 0;
#X connect 23 0 10 0;
#X connect 27 0 29 0;
#X connect 28 0 27 0;
