#N canvas 400 78 411 426 10;
#X obj 38 366 ratts;
#X obj 33 224 spellout;
#X floatatom 57 186 5 0 0;
#X msg 33 84 CPU;
#X msg 53 148 list ABC def;
#X msg 45 114 symbol Pd;
#X text 27 6 spellout : convert atoms to character-name sequences;
#X text 22 33 INLETS:;
#X text 203 30 OUTLETS:;
#X text 38 47 1 - any PD message;
#X text 110 398 Bryan Jurish <moocow@ling.uni-potsdam.de>;
#X text 17 345 SEE ALSO:;
#X obj 85 366 rattstok;
#X text 18 291 ACKNOWLEDGEMENTS:;
#X text 37 308 Based on code by Nick Ing-Simmons.;
#X obj 33 249 print spelled-out;
#X text 219 46 1 - character names;
#X text 168 83 Any Pd message is spelled out;
#X text 167 113 "symbol" selectors are ignored;
#X text 168 148 "list" selectors \, too;
#X text 176 183 floats are ok \, too;
#X connect 1 0 15 0;
#X connect 2 0 1 0;
#X connect 3 0 1 0;
#X connect 4 0 1 0;
#X connect 5 0 1 0;
