#N canvas 17 0 610 615 10;
#X text 300 581 Bryan Jurish <moocow@ling.uni-potsdam.de>;
#X text 16 507 SEE ALSO:;
#X obj 74 527 klatt~;
#X text 67 4 holmes : phonetic-element to Klatt-frame interpreter;
#X text 14 31 CONFIGURATION ARGUMENTS:;
#X text 60 92 frac - parameter filter fraction (0..2) [1];
#X text 53 78 basec - f0 coefficient for prosodic base [1];
#X text 60 63 topc - f0 coefficient for prosodic peak [1];
#X text 48 48 f0decl - declination of f0 envelop in Hz/cS [0];
#X obj 16 373 holmes f0decl 0.5 topc 1.1 basec 0.8;
#X obj 16 432 dac~;
#X obj 47 329 metro 10;
#X msg 16 143 add H 10 0 A 4 0 L 8 0 OI 7 0 OV 7 0 Q 6 0;
#X msg 170 315 bang;
#X text 274 316 "bang" computes the next Klatt-frame (if any);
#X msg 42 283 f0decl -10;
#X text 15 128 "add" adds a new utterance of holmes-elements;
#X msg 31 218 set END 0 0 UU 20 0 AR 15 0 Q 6 0;
#X text 19 164 "list" adds elements to current utterance (synonym="add2")
;
#X text 279 267 configuration parameters can be set by name;
#X text 272 219 "set" sets the whole utterance buffer;
#X msg 37 240 clear;
#X text 275 242 "clear" clears the utterance buffer;
#X text 439 351 Click here to start;
#X text 415 31 INLETS:;
#X text 433 45 1 - control messages;
#X text 417 69 OUTLETS:;
#X text 433 82 1 - Klatt-frame lists;
#X obj 46 312 r holmes-play;
#X msg 478 415 \; holmes-play 0;
#X obj 29 527 ratts;
#X msg 25 179 list R 11 0 AA 20 0 T 6 0 TY 1 0 TZ 2 0 S 12 0 Q 6 0
;
#X msg 477 368 \; pd dsp 1 \; holmes-play 1;
#X msg 42 266 f0decl 0 \, topc 1 \, basec 1;
#X text 433 97 2 - bang on empty queue;
#X obj 263 405 bng 15 250 50 0 empty empty empty_queue 0 20 0 8 -262144
-1 -1;
#X obj 125 527 phones2holmes;
#X text 25 546 J.N. Holmes \, I. Mattingly \, and J. Shearme \, "Speech
synthesis by rule" \, Language and Speech 7 \, 1964;
#X msg 122 400 1;
#X msg 123 419 0;
#X obj 16 411 klatt~ mspf 10;
#X msg 478 451 \; pd dsp 0;
#X text 12 465 ACKNOWLEDGEMENTS:;
#X text 31 482 Based on code by Nick Ing-Simmons.;
#X obj 224 527 holmes-feat;
#X connect 9 0 40 0;
#X connect 9 1 35 0;
#X connect 11 0 13 0;
#X connect 11 0 9 0;
#X connect 12 0 9 0;
#X connect 15 0 9 0;
#X connect 17 0 9 0;
#X connect 21 0 9 0;
#X connect 28 0 11 0;
#X connect 31 0 9 0;
#X connect 33 0 9 0;
#X connect 38 0 40 1;
#X connect 39 0 40 1;
#X connect 40 0 10 0;
#X connect 40 0 10 1;
