#N canvas 145 94 437 414 10;
#X obj 24 343 ratts;
#X text 203 24 INLETS:;
#X text 206 59 OUTLETS:;
#X text 13 2 number2text : convert floats to English text;
#X text 223 74 1 - English text (symbols);
#X text 219 39 1 - floats;
#X obj 36 137 number2text;
#X floatatom 36 111 10 0 0;
#X msg 57 85 1.2345;
#X text 7 324 SEE ALSO:;
#X obj 70 344 guessphones;
#X text 136 378 Bryan Jurish <moocow@ling.uni-potsdam.de>;
#X obj 36 223 dac~;
#X msg 252 172 \; holmes-play 1 \; pd dsp 1;
#X text 128 111 "float" inputs are converted to text;
#X text 215 155 click here to start;
#X msg 253 220 \; holmes-play 0;
#N canvas 220 279 315 280 number2text-help-guts 0;
#X obj 49 39 guessphones;
#X obj 49 62 phones2holmes;
#X obj 49 190 holmes;
#X obj 134 218 klatt~;
#X obj 62 147 metro 10;
#X obj 127 91 r holmes-play;
#X obj 134 241 outlet~;
#X obj 49 15 inlet;
#X obj 127 113 t f f f;
#X obj 127 146 == 0;
#X msg 127 168 clear;
#X connect 0 0 1 0;
#X connect 1 0 2 0;
#X connect 2 0 3 0;
#X connect 3 0 6 0;
#X connect 4 0 2 0;
#X connect 5 0 8 0;
#X connect 7 0 0 0;
#X connect 8 0 4 0;
#X connect 8 1 9 0;
#X connect 8 2 3 1;
#X connect 9 0 10 0;
#X connect 10 0 2 0;
#X restore 36 196 pd number2text-help-guts;
#X msg 25 82 420;
#X obj 53 173 print number-text;
#X text 6 273 ACKNOWLEDGEMENTS:;
#X text 25 290 Based on code by Nick Ing-Simmons.;
#X connect 6 0 17 0;
#X connect 6 0 19 0;
#X connect 7 0 6 0;
#X connect 8 0 7 0;
#X connect 17 0 12 0;
#X connect 17 0 12 1;
#X connect 18 0 7 0;
