#N canvas 0 3 494 477 10;
#X text 105 2 rattstok : tokenizer for raw text;
#X text 52 26 INLETS:;
#X text 245 24 OUTLETS:;
#X text 175 450 Bryan Jurish <moocow@ling.uni-potsdam.de>;
#X obj 36 422 ratts;
#X obj 35 248 rattstok;
#X obj 52 310 print float;
#X obj 35 331 print word;
#X obj 69 291 print suspect;
#X text 259 39 1 - single-word tokens;
#X text 259 53 2 - numeric tokens;
#X text 258 67 3 - suspect tokens (acronyms?);
#X msg 35 109 symbol foo;
#X text 156 108 Symbols are routed to the appropriate output;
#X msg 46 149 symbol SMP;
#X msg 40 129 symbol catch22;
#X text 156 128 ... and internally tokenized in the process;
#X text 157 147 ... basic acronym-recognition is performed;
#X msg 55 184 list test 123 Hz;
#X text 186 185 "list" selectors are silently dropped;
#X text 19 399 SEE ALSO:;
#X obj 80 422 number2text;
#X obj 166 422 guessphones;
#X text 62 40 1 - any pd message;
#X text 18 362 ACKNOWLEDGEMENTS:;
#X text 37 377 Based on code by Nick Ing-Simmons.;
#X msg 56 207 Is this a text?;
#X obj 86 270 print punctuation;
#X text 191 206 punctuation goes to the 4th outlet;
#X text 257 80 4 - punctuation;
#X connect 5 0 7 0;
#X connect 5 1 6 0;
#X connect 5 2 8 0;
#X connect 5 3 27 0;
#X connect 12 0 5 0;
#X connect 14 0 5 0;
#X connect 15 0 5 0;
#X connect 18 0 5 0;
#X connect 26 0 5 0;
