#N canvas 206 229 578 503 10;
#X declare -lib py;
#X obj 17 387 print;
#X obj 75 387 print END;
#X obj 17 364 pyx 1 2 make.shellx;
#X obj 286 315 ggee/getdir;
#X obj 286 338 cyclone/prepend cd;
#X msg 159 363 cd /Users/megrimm/Desktop/make && python findreplace.py
./oneline~/oneline~.c ./oneline~/oneline_174~.c oneline oneline_174
&& python findreplace.py ./oneline~/oneline_174~.c ./oneline~/oneline_174~.c
v000 v174 && python findreplace.py ./oneline~/Makefile_base ./oneline~/Makefile
oneline oneline_174;
#X obj 159 339 cyclone/prepend set;
#X obj 159 317 cyclone/prepend;
#X obj 159 270 cyclone/prepend && python findreplace.py;
#X obj 57 411 del 100;
#X obj 17 335 import py;
#X obj 159 80 random 100;
#X obj 159 10 bng 15 250 50 0 empty empty empty 17 7 0 10 -262144 -1
-1;
#X obj 159 35 t b b;
#X obj 57 434 s findreplace;
#X obj 186 58 s \$0-getdir-findreplace;
#X obj 286 294 r \$0-getdir-findreplace;
#X obj 159 101 + 100;
#X obj 159 151 pack f f f;
#X msg 159 204 ./oneline~/oneline~.c ./oneline~/\$1~.c oneline \$1
&& python findreplace.py ./oneline~/\$1~.c ./oneline~/\$1~.c v000 \$2
&& python findreplace.py ./oneline~/Makefile_base ./oneline~/Makefile
oneline \$1;
#X msg 159 178 list oneline_\$2 v\$3;
#X obj 159 123 t b f;
#X obj 66 89 +;
#X msg 45 50 0;
#X floatatom 88 53 5 0 0 0 - - -;
#X floatatom 43 119 5 0 0 0 - - -;
#X connect 2 0 0 0;
#X connect 2 1 1 0;
#X connect 2 1 9 0;
#X connect 3 0 4 0;
#X connect 4 0 7 1;
#X connect 6 0 5 0;
#X connect 7 0 6 0;
#X connect 7 0 2 1;
#X connect 8 0 7 0;
#X connect 9 0 14 0;
#X connect 11 0 17 0;
#X connect 12 0 13 0;
#X connect 13 0 11 0;
#X connect 13 1 15 0;
#X connect 16 0 3 0;
#X connect 17 0 21 0;
#X connect 18 0 20 0;
#X connect 19 0 8 0;
#X connect 20 0 19 0;
#X connect 21 0 18 0;
#X connect 21 1 18 2;
#X connect 21 1 18 1;
#X connect 22 0 25 0;
#X connect 22 0 17 0;
#X connect 23 0 22 0;
#X connect 24 0 22 1;
