#N canvas 118 95 421 447 10;
#X obj 167 303 wobble~;
#X floatatom 22 115 5 0 0 0 - - -;
#X text 68 115 midi-in;
#X obj 166 359 dac~;
#X msg 287 177 glide \$1;
#X msg 286 286 wobble \$1;
#X msg 287 231 tone \$1;
#X msg 287 127 bpm \$1;
#X floatatom 288 151 5 0 0 0 - - -;
#X floatatom 287 206 5 0 0 0 - - -;
#X floatatom 286 261 5 0 0 0 - - -;
#X floatatom 287 104 5 0 0 0 - - -;
#X obj 186 20 loadbang;
#X obj 186 62 f;
#X obj 215 62 + 1;
#X obj 186 41 metro 53.57;
#X floatatom 199 90 5 0 0 0 - - -;
#X connect 0 0 3 0;
#X connect 0 0 3 1;
#X connect 1 0 0 0;
#X connect 4 0 0 2;
#X connect 5 0 0 2;
#X connect 6 0 0 2;
#X connect 7 0 0 2;
#X connect 8 0 4 0;
#X connect 9 0 6 0;
#X connect 10 0 5 0;
#X connect 11 0 7 0;
#X connect 12 0 15 0;
#X connect 13 0 14 0;
#X connect 13 0 0 1;
#X connect 13 0 16 0;
#X connect 14 0 13 1;
#X connect 15 0 13 0;
