#N canvas 705 58 515 795 10;
#X obj 29 290 osc~;
#X obj 61 236 *~;
#X obj 79 216 lop~ 1;
#X obj 29 262 +~;
#X obj 29 38 mtof;
#X obj 29 119 / 2;
#X obj 29 682 vcf~ 2;
#X obj 170 416 r \$0-bpm;
#X obj 233 286 int;
#X obj 233 306 change -100;
#X obj 170 488 *;
#X obj 233 396 f;
#X msg 393 356 4;
#X obj 233 266 * 5.99;
#X obj 233 326 sel 0 1 2 3 4 5;
#X obj 170 458 / 60;
#X obj 170 437 f;
#X msg 313 356 2;
#X msg 353 356 3;
#X obj 29 99 t f f;
#X obj 29 78 line;
#X obj 29 58 pack f 100;
#X obj 96 38 * 1000;
#X msg 233 356 1;
#X msg 273 356 1.5;
#X obj 66 478 f;
#X obj 37 416 spigot 1;
#X obj 170 508 change -100;
#X obj 170 529 t f b;
#X msg 138 416 1;
#X msg 106 416 0;
#X obj 37 311 r \$0-tick;
#X obj 37 332 mod 8;
#X obj 37 353 / 2;
#X obj 37 374 int;
#X obj 37 396 * 0.25;
#N canvas 0 22 568 311 fm-osc 0;
#X obj 20 114 * 0.5;
#X obj 20 144 osc~;
#X obj 70 144 osc~;
#X obj 140 144 osc~;
#X obj 180 144 osc~;
#X obj 140 114 * 1;
#X obj 180 114 * 2;
#X obj 220 144 osc~;
#X obj 290 144 osc~;
#X obj 340 144 osc~;
#X obj 410 144 osc~;
#X obj 480 144 osc~;
#X obj 290 114 * 4;
#X obj 480 114 * 8;
#X obj 70 114 * 1.4983;
#X obj 410 114 * 5.9932;
#X obj 340 114 * 5.0397;
#X obj 220 114 * 2.9966;
#X obj 155 32 inlet;
#X obj 220 267 outlet~;
#X obj 340 174 *~ 1;
#X obj 290 174 *~ 1;
#X obj 140 174 *~ 1;
#X obj 180 174 *~ 1;
#X obj 70 174 *~ 2;
#X obj 20 174 *~ 2;
#X obj 220 174 *~ 1;
#X obj 155 53 t f f f f f f f f f;
#X obj 220 224 *~ 0.1;
#X obj 480 174 *~ 0.2;
#X obj 410 174 *~ 0.2;
#X connect 0 0 1 0;
#X connect 1 0 25 0;
#X connect 2 0 24 0;
#X connect 3 0 22 0;
#X connect 4 0 23 0;
#X connect 5 0 3 0;
#X connect 6 0 4 0;
#X connect 7 0 26 0;
#X connect 8 0 21 0;
#X connect 9 0 20 0;
#X connect 10 0 30 0;
#X connect 11 0 29 0;
#X connect 12 0 8 0;
#X connect 13 0 11 0;
#X connect 14 0 2 0;
#X connect 15 0 10 0;
#X connect 16 0 9 0;
#X connect 17 0 7 0;
#X connect 18 0 27 0;
#X connect 20 0 28 0;
#X connect 21 0 28 0;
#X connect 22 0 28 0;
#X connect 23 0 28 0;
#X connect 24 0 28 0;
#X connect 25 0 28 0;
#X connect 26 0 28 0;
#X connect 27 0 0 0;
#X connect 27 1 14 0;
#X connect 27 2 5 0;
#X connect 27 3 6 0;
#X connect 27 4 17 0;
#X connect 27 5 12 0;
#X connect 27 6 16 0;
#X connect 27 7 15 0;
#X connect 27 8 13 0;
#X connect 28 0 19 0;
#X connect 29 0 28 0;
#X connect 30 0 28 0;
#X restore 61 119 pd fm-osc;
#X obj 233 416 t b b b f;
#X obj 79 175 * 10000;
#X obj 79 196 + 100;
#X obj 29 18 inlet;
#X text 149 723 Joe White 2010;
#X obj 66 499 phasor~;
#X obj 66 520 *~ 2;
#X obj 66 550 max~ 1;
#X obj 116 551 min~ 1;
#X obj 48 456 sig~ 1;
#X obj 48 577 -~;
#X obj 48 598 *~ 2;
#X obj 48 619 -~ 1;
#X obj 48 640 *~ 490;
#X obj 48 661 +~ 490;
#X obj 37 436 t b b;
#X msg 447 363 5;
#X msg 196 353 0.5;
#X msg 161 360 0.25;
#X msg 143 327 0;
#X obj 29 724 outlet~;
#X obj 234 11 inlet;
#X obj 234 35 route bpm glide tone wobble;
#X obj 165 13 inlet;
#X connect 0 0 6 0;
#X connect 1 0 3 1;
#X connect 2 0 1 1;
#X connect 3 0 0 0;
#X connect 4 0 21 0;
#X connect 5 0 3 0;
#X connect 6 0 57 0;
#X connect 7 0 16 0;
#X connect 8 0 9 0;
#X connect 9 0 14 0;
#X connect 10 0 27 0;
#X connect 11 0 37 0;
#X connect 12 0 11 0;
#X connect 13 0 8 0;
#X connect 14 0 23 0;
#X connect 14 1 24 0;
#X connect 14 2 17 0;
#X connect 14 3 18 0;
#X connect 14 4 12 0;
#X connect 15 0 10 0;
#X connect 16 0 15 0;
#X connect 17 0 11 0;
#X connect 18 0 11 0;
#X connect 19 0 5 0;
#X connect 19 1 36 0;
#X connect 20 0 19 0;
#X connect 21 0 20 0;
#X connect 22 0 21 1;
#X connect 23 0 11 0;
#X connect 24 0 11 0;
#X connect 25 0 42 0;
#X connect 26 0 52 0;
#X connect 27 0 28 0;
#X connect 28 0 25 1;
#X connect 28 1 29 0;
#X connect 29 0 26 1;
#X connect 30 0 26 1;
#X connect 31 0 32 0;
#X connect 32 0 33 0;
#X connect 33 0 34 0;
#X connect 34 0 35 0;
#X connect 35 0 26 0;
#X connect 36 0 1 0;
#X connect 37 2 10 0;
#X connect 37 3 10 1;
#X connect 38 0 39 0;
#X connect 39 0 2 0;
#X connect 40 0 4 0;
#X connect 42 0 43 0;
#X connect 43 0 44 0;
#X connect 43 0 45 0;
#X connect 44 0 47 1;
#X connect 45 0 48 0;
#X connect 46 0 47 0;
#X connect 47 0 48 0;
#X connect 48 0 49 0;
#X connect 49 0 50 0;
#X connect 50 0 51 0;
#X connect 51 0 6 1;
#X connect 52 0 30 0;
#X connect 52 1 25 0;
#X connect 53 0 11 0;
#X connect 54 0 11 0;
#X connect 55 0 11 0;
#X connect 56 0 11 0;
#X connect 58 0 59 0;
#X connect 59 0 16 0;
#X connect 59 1 22 0;
#X connect 59 2 38 0;
#X connect 59 3 13 0;
#X connect 60 0 32 0;
