#N canvas 0 0 460 350 10;
#X text 39 2 holmes-phones : phonetic encoding used by;
#X obj 339 2 ratts;
#X text 10 35 Phone;
#X text 10 48 Symbol;
#X text 90 35 British;
#X text 90 48 String;
#X text 170 35 American;
#X text 170 48 String;
#X text 250 35 Example;
#X text 250 48 Word(s);
#X text 3 61 -----------------------------------------------------------;
#X text 10 74 AA;
#X text 90 74 "A";
#X text 170 74 "A";
#X text 250 74 stARt \, fAther;
#X text 10 87 AA1;
#X text 90 87 "A";
#X text 170 87 "A";
#X text 250 87 stARt \, fAther;
#X text 10 100 AA2;
#X text 90 100 "A";
#X text 170 100 "A";
#X text 250 100 stARt \, fAther;
#X text 10 113 AE;
#X text 90 113 "\&";
#X text 170 113 "\&";
#X text 250 113 trAp \, bAd;
#X text 10 126 AE1;
#X text 90 126 "'\&";
#X text 170 126 "'\&";
#X text 250 126 trAp \, bAd;
#X text 10 139 AE2;
#X text 90 139 "\,\&";
#X text 170 139 "\,\&";
#X text 250 139 trAp \, bAd;
#X text 10 152 AH;
#X text 90 152 "V";
#X text 170 152 "V";
#X text 250 152 strUt \, bUd \, lOve;
#X text 10 165 AH1;
#X text 90 165 "'V";
#X text 170 165 "'V";
#X text 250 165 strUt \, bUd \, lOve;
#X text 10 178 AH2;
#X text 90 178 "\,V";
#X text 170 178 "\,V";
#X text 250 178 strUt \, bUd \, lOve;
#X text 10 191 AO;
#X text 90 191 "O";
#X text 170 191 "O";
#X text 250 191 thOUGHt \, lAW;
#X text 10 204 AO1;
#X text 90 204 "'O";
#X text 170 204 "'O";
#X text 250 204 thOUGHt \, lAW;
#X text 10 217 AO2;
#X text 90 217 "\,O";
#X text 170 217 "\,O";
#X text 250 217 thOUGHt \, lAW;
#X text 10 230 AW;
#X text 90 230 "aU";
#X text 170 230 "aU";
#X text 250 230 mOUth \, nOW;
#X text 10 243 AW1;
#X text 90 243 "'aU";
#X text 170 243 "'aU";
#X text 250 243 mOUth \, nOW;
#X text 10 256 AW2;
#X text 90 256 "\,aU";
#X text 170 256 "\,aU";
#X text 250 256 mOUth \, nOW;
#X text 10 269 AX;
#X text 90 269 "@";
#X text 170 269 "@";
#X text 250 269 About \, commA \, commOn;
#X text 10 282 AY;
#X text 90 282 "aI";
#X text 170 282 "aI";
#X text 250 282 prIce \, hIGH \, trY;
#X text 10 295 AY1;
#X text 90 295 "'aI";
#X text 170 295 "'aI";
#X text 250 295 prIce \, hIGH \, trY;
#X text 10 308 AY2;
#X text 90 308 "\,aI";
#X text 170 308 "\,aI";
#X text 250 308 prIce \, hIGH \, trY;
#X text 10 321 B;
#X text 90 321 "b";
#X text 170 321 "b";
#X text 250 321 Back \, BuBBle \, joB;
#X text 10 334 CH;
#X text 90 334 "tS";
#X text 170 334 "tS";
#X text 250 334 CHurCH \, maTCH \, naTUre;
#X text 10 347 D;
#X text 90 347 "d";
#X text 170 347 "d";
#X text 250 347 Day \, laDDer \, oDD;
#X text 10 360 DH;
#X text 90 360 "D";
#X text 170 360 "D";
#X text 250 360 THis \, oTHer \, smooTH;
#X text 10 373 EA;
#X text 90 373 "e@";
#X text 170 373 "e@";
#X text 250 373 squARE \, fAIR;
#X text 10 386 EA1;
#X text 90 386 "'e@";
#X text 170 386 "'e@";
#X text 250 386 squARE \, fAIR;
#X text 10 399 EA2;
#X text 90 399 "\,e@";
#X text 170 399 "\,e@";
#X text 250 399 squARE \, fAIR;
#X text 10 412 EH;
#X text 90 412 "e";
#X text 170 412 "e";
#X text 250 412 drEss \, bEd;
#X text 10 425 EH1;
#X text 90 425 "'e";
#X text 170 425 "'e";
#X text 250 425 drEss \, bEd;
#X text 10 438 EH2;
#X text 90 438 "\,e";
#X text 170 438 "\,e";
#X text 250 438 drEss \, bEd;
#X text 10 451 ER;
#X text 90 451 "3";
#X text 170 451 "3R";
#X text 250 451 nURse \, stIR \, cOURage;
#X text 10 464 ER1;
#X text 90 464 "'3";
#X text 170 464 "'3R";
#X text 250 464 nURse \, stIR \, cOURage;
#X text 10 477 ER2;
#X text 90 477 "\,3";
#X text 170 477 "\,3R";
#X text 250 477 nURse \, stIR \, cOURage;
#X text 10 490 EY;
#X text 90 490 "eI";
#X text 170 490 "eI";
#X text 250 490 fAce \, dAy \, stEAk;
#X text 10 503 EY1;
#X text 90 503 "'eI";
#X text 170 503 "'eI";
#X text 250 503 fAce \, dAy \, stEAk;
#X text 10 516 EY2;
#X text 90 516 "\,eI";
#X text 170 516 "\,eI";
#X text 250 516 fAce \, dAy \, stEAk;
#X text 10 529 F;
#X text 90 529 "f";
#X text 170 529 "f";
#X text 250 529 Fat \, coFFee \, rouGH;
#X text 10 542 G;
#X text 90 542 "g";
#X text 170 542 "g";
#X text 250 542 Get \, GiGGle \, GHost;
#X text 10 555 HH;
#X text 90 555 "h";
#X text 170 555 "h";
#X text 250 555 Hot \, WHole \, beHind;
#X text 10 568 IA;
#X text 90 568 "I@";
#X text 170 568 "I@";
#X text 250 568 nEAR \, hERE \, sErious;
#X text 10 581 IA1;
#X text 90 581 "'I@";
#X text 170 581 "'I@";
#X text 250 581 nEAR \, hERE \, sErious;
#X text 10 594 IA2;
#X text 90 594 "\,I@";
#X text 170 594 "\,I@";
#X text 250 594 nEAR \, hERE \, sErious;
#X text 10 607 IH;
#X text 90 607 "I";
#X text 170 607 "I";
#X text 250 607 Intend \, basIc \, kIt;
#X text 10 620 IH1;
#X text 90 620 "'I";
#X text 170 620 "'I";
#X text 250 620 Intend \, basIc \, kIt;
#X text 10 633 IH2;
#X text 90 633 "\,I";
#X text 170 633 "\,I";
#X text 250 633 Intend \, basIc \, kIt;
#X text 10 646 IY;
#X text 90 646 "i";
#X text 170 646 "i";
#X text 250 646 happY \, radIation \, glorIous;
#X text 10 659 IY1;
#X text 90 659 "'i";
#X text 170 659 "'i";
#X text 250 659 happY \, radIation \, glorIous;
#X text 10 672 IY2;
#X text 90 672 "\,i";
#X text 170 672 "\,i";
#X text 250 672 happY \, radIation \, glorIous;
#X text 10 685 JH;
#X text 90 685 "dZ";
#X text 170 685 "dZ";
#X text 250 685 JuDGE \, aGe \, solDIer;
#X text 10 698 K;
#X text 90 698 "k";
#X text 170 698 "k";
#X text 250 698 Key \, CoCK \, sCHool;
#X text 10 711 L;
#X text 90 711 "l";
#X text 170 711 "l";
#X text 250 711 Light \, vaLLey \, feeL;
#X text 10 724 M;
#X text 90 724 "m";
#X text 170 724 "m";
#X text 250 724 More \, haMMer \, suM;
#X text 10 737 N;
#X text 90 737 "n";
#X text 170 737 "n";
#X text 250 737 Nice \, KNow \, fuNNy;
#X text 10 750 NG;
#X text 90 750 "N";
#X text 170 750 "N";
#X text 250 750 riNG \, loNG \, thaNks;
#X text 10 763 OH;
#X text 90 763 "0";
#X text 170 763 "0";
#X text 250 763 lOt \, Odd \, wAsh;
#X text 10 776 OH1;
#X text 90 776 "'0";
#X text 170 776 "'0";
#X text 250 776 lOt \, Odd \, wAsh;
#X text 10 789 OH2;
#X text 90 789 "\,0";
#X text 170 789 "\,0";
#X text 250 789 lOt \, Odd \, wAsh;
#X text 10 802 OW;
#X text 90 802 "@U";
#X text 170 802 "oU";
#X text 250 802 goat \, shOW \, nO;
#X text 10 815 OW1;
#X text 90 815 "'@U";
#X text 170 815 "'oU";
#X text 250 815 goat \, shOW \, nO;
#X text 10 828 OW2;
#X text 90 828 "\,@U";
#X text 170 828 "\,oU";
#X text 250 828 goat \, shOW \, nO;
#X text 10 841 OY;
#X text 90 841 "oI";
#X text 170 841 "oI";
#X text 250 841 chOIce \, bOY;
#X text 10 854 OY1;
#X text 90 854 "'oI";
#X text 170 854 "'oI";
#X text 250 854 chOIce \, bOY;
#X text 10 867 OY2;
#X text 90 867 "\,oI";
#X text 170 867 "\,oI";
#X text 250 867 chOIce \, bOY;
#X text 10 880 P;
#X text 90 880 "p";
#X text 170 880 "p";
#X text 250 880 Pen \, coPy \, haPPen;
#X text 10 893 R;
#X text 90 893 "r";
#X text 170 893 "r";
#X text 250 893 Right \, soRRy \, aRRange;
#X text 10 906 S;
#X text 90 906 "s";
#X text 170 906 "s";
#X text 250 906 Soon \, CeaSe \, SiSter;
#X text 10 919 SH;
#X text 90 919 "S";
#X text 170 919 "S";
#X text 250 919 SHip \, Sure \, staTIon;
#X text 10 932 T;
#X text 90 932 "t";
#X text 170 932 "t";
#X text 250 932 Tea \, TighT \, buTTon;
#X text 10 945 TH;
#X text 90 945 "T";
#X text 170 945 "T";
#X text 250 945 THing \, auTHor \, paTH;
#X text 10 958 TS;
#X text 90 958 "ts";
#X text 170 958 "ts";
#X text 250 958 TSai;
#X text 10 971 UA;
#X text 90 971 "U@";
#X text 170 971 "u";
#X text 250 971 inflUence \, sitUation \, annUal;
#X text 10 984 UA1;
#X text 90 984 "'U@";
#X text 170 984 "'u";
#X text 250 984 inflUence \, sitUation \, annUal;
#X text 10 997 UA2;
#X text 90 997 "\,U@";
#X text 170 997 "\,u";
#X text 250 997 inflUence \, sitUation \, annUal;
#X text 10 1010 UH;
#X text 90 1010 "U";
#X text 170 1010 "U";
#X text 250 1010 fOOt \, gOOd \, pUt;
#X text 10 1023 UH1;
#X text 90 1023 "'U";
#X text 170 1023 "'U";
#X text 250 1023 fOOt \, gOOd \, pUt;
#X text 10 1036 UH2;
#X text 90 1036 "\,U";
#X text 170 1036 "\,U";
#X text 250 1036 fOOt \, gOOd \, pUt;
#X text 10 1049 UW;
#X text 90 1049 "u";
#X text 170 1049 "u";
#X text 250 1049 gOOse \, twO \, blUE;
#X text 10 1062 UW1;
#X text 90 1062 "'u";
#X text 170 1062 "'u";
#X text 250 1062 gOOse \, twO \, blUE;
#X text 10 1075 UW2;
#X text 90 1075 "\,u";
#X text 170 1075 "\,u";
#X text 250 1075 gOOse \, twO \, blUE;
#X text 10 1088 V;
#X text 90 1088 "v";
#X text 170 1088 "v";
#X text 250 1088 View \, heaVy \, moVe;
#X text 10 1101 W;
#X text 90 1101 "w";
#X text 170 1101 "w";
#X text 250 1101 Wet \, One \, When;
#X text 10 1114 Y;
#X text 90 1114 "j";
#X text 170 1114 "j";
#X text 250 1114 Yet \, Use \, bEAuty;
#X text 10 1127 Z;
#X text 90 1127 "z";
#X text 170 1127 "z";
#X text 250 1127 Zero \, Zone \, roSeS;
#X text 10 1140 ZH;
#X text 90 1140 "Z";
#X text 170 1140 "Z";
#X text 250 1140 pleaSure \, viSIon;
#X text 150 1166 Bryan Jurish <moocow@ling.uni-potsdam.de>;
