#N canvas 0 23 1381 952 10;
#X obj 197 -1422 dac~;
#X obj 198 -1461 phasor~;
#X msg 198 -2566 783.991 932.328 783.991 587.33 783.991 587.33 466.164
587.33 466.164 391.995 466.164 391.995 293.665 391.995 293.665 233.082
293.665 233.082 195.998 233.082 293.665 391.995 466.164 587.33 783.991
587.33 523.251 466.164 440 391.995 369.994 293.665 369.994 440 587.33
739.989 880 622.254 587.33 523.251 466.164 440 391.995 293.665 391.995
466.164 587.33 783.991 932.328 783.991 622.254 523.251 622.254 783.991
880 698.456 587.33 466.164 587.33 698.456 783.991 622.254 523.251 440
523.251 622.254 293.665 783.991 739.989 783.991 880 523.251 391.995
523.251 466.164 523.251 587.33 349.228 261.626 698.456 659.255 698.456
783.991 466.164 349.228 466.164 440 466.164 523.251 311.127 233.082
622.254 587.33 622.254 698.456 415.305 311.127 233.082 311.127 391.995
311.127 391.995 523.251 391.995 523.251 622.254 523.251 622.254 349.228
261.626 349.228 440 349.228 440 587.33 440 587.33 698.456 587.33 698.456
391.995 293.665 391.995 466.164 391.995 466.164 622.254 466.164 622.254
783.991 622.254 783.991 440 349.228 440 523.251 440 523.251 698.456
523.251 698.456 880 698.456 880 466.164 523.251 587.33 932.328 880
932.328 523.251 587.33 622.254 932.328 880 932.328 587.33 622.254 698.456
932.328 880 932.328 622.254 698.456 783.991 932.328 880 932.328 440
523.251 622.254 783.991 698.456 622.254 587.33 466.164 622.254 466.164
698.456 415.305 391.995 440 466.164 293.665 261.626 440 233.082 293.665
261.626 233.082 220 195.998 220 391.995 369.994 329.628 293.665 523.251
466.164 440 391.995 698.456 659.255 587.33 554.365 932.328 880 783.991
698.456 659.255 698.456 587.33 783.991 587.33 880 523.251 466.164 880
783.991 698.456 659.255 587.33 659.255 523.251 698.456 523.251 783.991
466.164 440 783.991 698.456 659.255 587.33 554.365 587.33 466.164 659.255
466.164 698.456 440 391.995 698.456 659.255 587.33 554.365 493.883
554.365 440 587.33 440 659.255 391.995 349.228 587.33 466.164 391.995
329.628 523.251 293.665 466.164 391.995 329.628 261.626 440 233.082
391.995 329.628 277.183 220 349.228 195.998 349.228 329.628 293.665
277.183 246.942 220 293.665 277.183 329.628 293.665 349.228 220 329.628
293.665 349.228 329.628 391.995 220 349.228 329.628 391.995 349.228
440 233.082 391.995 369.994 440 391.995 466.164 277.183 466.164 440
391.995 349.228 329.628 349.228 293.665 349.228 440 587.33 698.456
880 587.33 440 554.365 587.33 783.991 932.328 783.991 587.33 783.991
587.33 466.164 587.33 466.164 391.995 466.164 391.995 293.665 391.995
293.665 233.082 293.665 233.082 195.998 233.082 293.665 391.995 466.164
587.33 783.991 587.33 523.251 466.164 440 391.995 369.994 293.665 369.994
440 587.33 739.989 880 622.254 587.33 523.251 466.164 440 391.995 293.665
391.995 466.164 587.33 783.991 932.328 783.991 622.254 523.251 622.254
783.991 880 698.456 587.33 466.164 587.33 698.456 783.991 622.254 523.251
440 523.251 622.254 293.665 783.991 739.989 783.991 880 523.251 391.995
523.251 466.164 523.251 587.33 349.228 261.626 698.456 659.255 698.456
783.991 466.164 349.228 466.164 440 466.164 523.251 311.127 233.082
622.254 587.33 622.254 698.456 415.305 311.127 233.082 311.127 391.995
311.127 391.995 523.251 391.995 523.251 622.254 523.251 622.254 349.228
261.626 349.228 440 349.228 440 587.33 440 587.33 698.456 587.33 698.456
391.995 293.665 391.995 466.164 391.995 466.164 622.254 466.164 622.254
783.991 622.254 783.991 440 349.228 440 523.251 440 523.251 698.456
523.251 698.456 880 698.456 880 466.164 523.251 587.33 932.328 880
932.328 523.251 587.33 622.254 932.328 880 932.328 587.33 622.254 698.456
932.328 880 932.328 622.254 698.456 783.991 932.328 880 932.328 440
523.251 622.254 783.991 698.456 622.254 587.33 466.164 622.254 466.164
698.456 415.305 391.995 440 466.164 293.665 261.626 440 233.082 293.665
261.626 233.082 220 195.998 220 391.995 369.994 329.628 293.665 523.251
466.164 440 391.995 698.456 659.255 587.33 554.365 932.328 880 783.991
698.456 659.255 698.456 587.33 783.991 587.33 880 523.251 466.164 880
783.991 698.456 659.255 587.33 659.255 523.251 698.456 523.251 783.991
466.164 440 783.991 698.456 659.255 587.33 554.365 587.33 466.164 659.255
466.164 698.456 440 391.995 698.456 659.255 587.33 554.365 493.883
554.365 440 587.33 440 659.255 391.995 349.228 587.33 466.164 391.995
329.628 523.251 293.665 466.164 391.995 329.628 261.626 440 233.082
391.995 329.628 277.183 220 349.228 195.998 349.228 329.628 293.665
277.183 246.942 220 293.665 277.183 329.628 293.665 349.228 220 329.628
293.665 349.228 329.628 391.995 220 349.228 329.628 391.995 349.228
440 233.082 391.995 369.994 440 391.995 466.164 277.183 466.164 440
391.995 349.228 329.628 349.228 293.665 349.228 440 587.33 698.456
880 587.33 440 554.365 587.33 293.665 220 293.665 369.994 293.665 369.994
440 369.994 440 587.33 440 587.33 739.989 587.33 739.989 880 739.989
880 1174.66 880 739.989 587.33 440 369.994 293.665 329.628 369.994
391.995 440 466.164 523.251 622.254 523.251 440 523.251 440 369.994
293.665 369.994 440 587.33 523.251 466.164 587.33 466.164 391.995 293.665
233.082 195.998 220 233.082 261.626 293.665 311.127 349.228 415.305
349.228 293.665 349.228 293.665 246.942 195.998 246.942 293.665 391.995
349.228 311.127 261.626 311.127 391.995 523.251 587.33 622.254 523.251
415.305 349.228 415.305 523.251 587.33 466.164 391.995 311.127 391.995
466.164 523.251 415.305 349.228 293.665 349.228 415.305 195.998 523.251
493.883 523.251 587.33 349.228 261.626 698.456 622.254 698.456 783.991
466.164 349.228 466.164 415.305 466.164 523.251 311.127 233.082 622.254
587.33 622.254 698.456 415.305 311.127 415.305 391.995 415.305 466.164
277.183 207.652 261.626 349.228 415.305 391.995 349.228 246.942 293.665
349.228 415.305 391.995 349.228 261.626 329.628 349.228 415.305 391.995
349.228 293.665 349.228 493.883 523.251 587.33 349.228 311.127 391.995
523.251 587.33 622.254 523.251 830.609 783.991 698.456 622.254 587.33
523.251 783.991 587.33 622.254 523.251 391.995 493.883 261.626 349.228
311.127 293.665 261.626 233.082 220 261.626 349.228 261.626 349.228
440 349.228 440 523.251 440 523.251 622.254 523.251 622.254 880 783.991
698.456 622.254 587.33 523.251 466.164 523.251 587.33 659.255 739.989
880 1046.5 880 739.989 880 739.989 523.251 739.989 523.251 440 523.251
440 369.994 440 369.994 293.665 523.251 466.164 391.995 466.164 391.995
329.628 587.33 523.251 440 523.251 440 369.994 622.254 587.33 466.164
587.33 466.164 391.995 698.456 622.254 523.251 622.254 523.251 440
783.991 739.989 587.33 659.255 739.989 783.991 880 932.328 587.33 783.991
932.328 523.251 622.254 880 698.456 587.33 466.164 587.33 698.456 783.991
466.164 622.254 783.991 440 523.251 698.456 587.33 466.164 391.995
466.164 587.33 622.254 391.995 523.251 622.254 349.228 440 587.33 466.164
391.995 329.628 391.995 466.164 523.251 440 466.164 391.995 369.994
440 293.665 329.628 369.994 391.995 440 466.164 523.251 622.254 587.33
783.991 739.989 932.328 880 783.991 739.989 659.255 587.33 523.251
466.164 622.254 587.33 466.164 523.251 440 349.228 587.33 523.251 440
466.164 391.995 311.127 523.251 466.164 391.995 440 369.994 293.665
466.164 440 369.994 391.995 311.127 261.626 440 391.995 329.628 369.994
293.665 233.082 587.33 523.251 466.164 440 391.995 622.254 587.33 523.251
932.328 880 783.991 739.989 783.991 880 587.33 622.254 523.251 349.228
493.883 587.33 415.305 391.995 349.228 329.628 391.995 523.251 659.255
783.991 466.164 311.127 440 523.251 391.995 349.228 311.127 293.665
349.228 466.164 587.33 698.456 415.305 391.995 622.254 466.164 391.995
311.127 293.665 261.626 622.254 523.251 466.164 440 391.995 369.994
587.33 440 369.994 293.665 261.626 233.082 587.33 466.164 440 391.995
349.228 329.628 261.626 391.995 233.082 220 391.995 369.994 293.665
440 261.626 233.082 440 391.995 311.127 466.164 293.665 261.626 466.164
440 349.228 523.251 311.127 293.665 523.251 466.164 391.995 587.33
349.228 329.628 587.33 523.251 440 622.254 391.995 369.994 622.254
587.33 466.164 783.991 466.164 440 523.251 466.164 391.995 369.994
440 293.665 261.626 233.082 391.995 369.994 440 391.995 466.164 261.626
440 391.995 466.164 440 523.251 293.665 466.164 440 523.251 466.164
587.33 311.127 523.251 493.883 587.33 523.251 622.254 369.994 622.254
587.33 523.251 466.164 440 466.164 587.33 783.991 932.328 783.991 587.33
466.164 391.995 293.665 739.989 783.991 293.665 220 293.665 369.994
293.665 369.994 440 369.994 440 587.33 440 587.33 739.989 587.33 739.989
880 739.989 880 1174.66 880 739.989 587.33 440 369.994 293.665 329.628
369.994 391.995 440 466.164 523.251 622.254 523.251 440 523.251 440
369.994 293.665 369.994 440 587.33 523.251 466.164 587.33 466.164 391.995
293.665 233.082 195.998 220 233.082 261.626 293.665 311.127 349.228
415.305 349.228 293.665 349.228 293.665 246.942 195.998 246.942 293.665
391.995 349.228 311.127 261.626 311.127 391.995 523.251 587.33 622.254
523.251 415.305 349.228 415.305 523.251 587.33 466.164 391.995 311.127
391.995 466.164 523.251 415.305 349.228 293.665 349.228 415.305 195.998
523.251 493.883 523.251 587.33 349.228 261.626 698.456 622.254 698.456
783.991 466.164 349.228 466.164 415.305 466.164 523.251 311.127 233.082
622.254 587.33 622.254 698.456 415.305 311.127 415.305 391.995 415.305
466.164 277.183 207.652 261.626 349.228 415.305 391.995 349.228 246.942
293.665 349.228 415.305 391.995 349.228 261.626 329.628 349.228 415.305
391.995 349.228 293.665 349.228 493.883 523.251 587.33 349.228 311.127
391.995 523.251 587.33 622.254 523.251 830.609 783.991 698.456 622.254
587.33 523.251 783.991 587.33 622.254 523.251 391.995 493.883 261.626
349.228 311.127 293.665 261.626 233.082 220 261.626 349.228 261.626
349.228 440 349.228 440 523.251 440 523.251 622.254 523.251 622.254
880 783.991 698.456 622.254 587.33 523.251 466.164 523.251 587.33 659.255
739.989 880 1046.5 880 739.989 880 739.989 523.251 739.989 523.251
440 523.251 440 369.994 440 369.994 293.665 523.251 466.164 391.995
466.164 391.995 329.628 587.33 523.251 440 523.251 440 369.994 622.254
587.33 466.164 587.33 466.164 391.995 698.456 622.254 523.251 622.254
523.251 440 783.991 739.989 587.33 659.255 739.989 783.991 880 932.328
587.33 783.991 932.328 523.251 622.254 880 698.456 587.33 466.164 587.33
698.456 783.991 466.164 622.254 783.991 440 523.251 698.456 587.33
466.164 391.995 466.164 587.33 622.254 391.995 523.251 622.254 349.228
440 587.33 466.164 391.995 329.628 391.995 466.164 523.251 440 466.164
391.995 369.994 440 293.665 329.628 369.994 391.995 440 466.164 523.251
622.254 587.33 783.991 739.989 932.328 880 783.991 739.989 659.255
587.33 523.251 466.164 622.254 587.33 466.164 523.251 440 349.228 587.33
523.251 440 466.164 391.995 311.127 523.251 466.164 391.995 440 369.994
293.665 466.164 440 369.994 391.995 311.127 261.626 440 391.995 329.628
369.994 293.665 233.082 587.33 523.251 466.164 440 391.995 622.254
587.33 523.251 932.328 880 783.991 739.989 783.991 880 587.33 622.254
523.251 349.228 493.883 587.33 415.305 391.995 349.228 329.628 391.995
523.251 659.255 783.991 466.164 311.127 440 523.251 391.995 349.228
311.127 293.665 349.228 466.164 587.33 698.456 415.305 391.995 622.254
466.164 391.995 311.127 293.665 261.626 622.254 523.251 466.164 440
391.995 369.994 587.33 440 369.994 293.665 261.626 233.082 587.33 466.164
440 391.995 349.228 329.628 261.626 391.995 233.082 220 391.995 369.994
293.665 440 261.626 233.082 440 391.995 311.127 466.164 293.665 261.626
466.164 440 349.228 523.251 311.127 293.665 523.251 466.164 391.995
587.33 349.228 329.628 587.33 523.251 440 622.254 391.995 369.994 622.254
587.33 466.164 783.991 466.164 440 523.251 466.164 391.995 369.994
440 293.665 261.626 233.082 391.995 369.994 440 391.995 466.164 261.626
440 391.995 466.164 440 523.251 293.665 466.164 440 523.251 466.164
587.33 311.127 523.251 493.883 587.33 523.251 622.254 369.994 622.254
587.33 523.251 466.164 440 466.164 587.33 783.991 932.328 783.991 587.33
466.164 391.995 293.665 739.989 783.991 0, f 125;
#X obj 198 -1485 zexy/drip 120;
#X connect 1 0 0 0;
#X connect 1 0 0 1;
#X connect 2 0 3 0;
#X connect 3 0 1 0;
