#N canvas 366 143 377 484 10;
#X obj 177 164 samphold~;
#X obj 104 415 dac~;
#X obj 117 197 wrap~;
#X obj 116 242 vd~ \$0-bb;
#X obj 214 323 delwrite~ \$0-bb 100;
#X obj 179 274 *~ 0.95;
#X obj 117 118 *~ 705600;
#X obj 117 220 *~ 20;
#X obj 219 221 *~ 16;
#X obj 137 30 phasor~ 15;
#X obj 232 273 osc~;
#X obj 115 382 clip~ -0.5 0.5;
#X connect 0 0 2 0;
#X connect 0 0 8 0;
#X connect 2 0 7 0;
#X connect 3 0 5 0;
#X connect 3 0 11 0;
#X connect 5 0 4 0;
#X connect 6 0 0 0;
#X connect 6 0 2 0;
#X connect 7 0 3 0;
#X connect 8 0 10 0;
#X connect 9 0 0 1;
#X connect 9 0 6 0;
#X connect 10 0 4 0;
#X connect 11 0 1 0;
#X connect 11 0 1 1;
