#N canvas 512 143 483 485 10;
#X obj 177 164 samphold~;
#X obj 106 427 dac~;
#X obj 117 197 wrap~;
#X obj 116 242 vd~ \$0-bb;
#X obj 214 323 delwrite~ \$0-bb 100;
#X obj 164 63 phasor~ 1;
#X obj 179 274 *~ 0.95;
#X obj 116 220 *~ 9;
#X obj 115 118 *~ 705600;
#X obj 122 335 hip~ 5;
#X obj 121 367 clip~ -1 1;
#X obj 232 273 phasor~;
#X connect 0 0 2 0;
#X connect 0 0 11 0;
#X connect 2 0 7 0;
#X connect 3 0 6 0;
#X connect 3 0 9 0;
#X connect 5 0 0 1;
#X connect 5 0 8 0;
#X connect 6 0 4 0;
#X connect 7 0 3 0;
#X connect 8 0 0 0;
#X connect 8 0 2 0;
#X connect 9 0 10 0;
#X connect 10 0 1 0;
#X connect 10 0 1 1;
#X connect 11 0 4 0;
