#N canvas 667 67 438 474 10;
#X obj 23 385 dac~;
#X obj 137 32 tgl 15 0 empty empty empty 17 7 0 10 -262144 -1 -1 1
1;
#X text 27 6 1 turn dsp on;
#X text 27 20 2 turn metro on;
#X text 76 380 WARNING! Loud sounds!;
#X obj 324 149 snapshot~;
#X obj 239 306 cos~;
#X obj 6 172 cos~;
#X obj 200 54 metro 150;
#X obj 56 315 bp~;
#X obj 86 266 * 150;
#X obj 97 63 phasor~ 30;
#X connect 1 0 8 0;
#X connect 5 0 9 2;
#X connect 5 0 10 0;
#X connect 5 0 11 1;
#X connect 6 0 0 1;
#X connect 6 0 5 0;
#X connect 6 0 9 0;
#X connect 7 0 0 0;
#X connect 7 0 6 0;
#X connect 7 0 5 0;
#X connect 7 0 9 0;
#X connect 8 0 5 0;
#X connect 9 0 0 0;
#X connect 9 0 0 1;
#X connect 10 0 9 1;
#X connect 10 0 9 2;
#X connect 10 0 11 0;
#X connect 11 0 6 0;
#X connect 11 0 7 0;
#X connect 11 0 5 0;
#X connect 11 0 9 0;
