#N canvas 806 323 390 459 10;
#X obj 33 253 dac~;
#X obj 42 135 *~;
#X obj 36 72 osc~ 136.1;
#X obj 101 19 snapshot~;
#X obj 177 -13 unsig~;
#X obj 106 109 hip~ 0.99;
#X obj 168 -39 phasor~ 0.25;
#X obj 137 -4 bang;
#X obj 81 41 * 1000;
#X obj 45 -38 phasor~ 19.43 0.9;
#X obj 107 68 phasor~ 1.69;
#X obj 27 209 vcf~ 0.001;
#X obj 63 167 phasor~ 98;
#X text 130 166 <<<try some different arguments here;
#X connect 1 0 11 0;
#X connect 2 0 1 0;
#X connect 3 0 8 0;
#X connect 4 0 7 0;
#X connect 5 0 1 1;
#X connect 6 0 4 0;
#X connect 7 0 3 0;
#X connect 8 0 2 0;
#X connect 9 0 3 0;
#X connect 10 0 5 0;
#X connect 11 0 0 0;
#X connect 11 1 0 1;
#X connect 12 0 11 1;
