#N canvas 21 480 444 273 10;
#X obj -59 162 dac~;
#X obj -59 66 rpole~ 1;
#X msg 33 40 set 0;
#X obj -59 136 hip~ 10;
#X obj -59 39 sig~ 0.181405;
#X text -83 -13 pd implementation of the method presented by 'viznut'
on the countercomplex-blog. now with (proper?) 'typeconversion' and
scaling and about 8 khz samplingrate;
#X obj -59 89 expr~ int($v1);
#X obj -59 112 expr~ ($v1*(($v1>>12|$v1>>8)&63&$v1>>4) & 0xff) / 256
;
#X connect 1 0 6 0;
#X connect 2 0 1 0;
#X connect 3 0 0 0;
#X connect 3 0 0 1;
#X connect 4 0 1 0;
#X connect 6 0 7 0;
#X connect 7 0 3 0;
