#N canvas 260 51 528 286 10;
#X obj 274 259 dac~;
#X obj 19 148 vcf~ 0.01;
#X obj 220 179 *~;
#X obj 130 27 phasor~ -2.25;
#X obj 212 133 *~ -0.1;
#X obj 110 166 *~;
#X obj 151 112 noise~;
#X obj 89 144 hip~ 20;
#X obj 150 136 *~;
#X obj 391 132 samphold~;
#X obj 386 105 wrap~;
#X obj 232 156 phasor~ 40;
#X obj 366 191 vcf~ 50;
#X obj 300 98 phasor~ -3.1;
#X msg 276 19 40;
#X msg 308 30 45;
#X obj 212 111 expr~ $v1<0.5;
#X msg 358 35 35;
#X floatatom 410 53 5 0 0 0 - - -, f 5;
#X obj 385 83 *~ -2;
#X obj 401 162 *~ 22000;
#X connect 1 0 0 0;
#X connect 1 0 0 1;
#X connect 2 0 0 0;
#X connect 2 0 0 1;
#X connect 3 0 1 1;
#X connect 3 0 1 0;
#X connect 3 0 16 0;
#X connect 3 0 19 0;
#X connect 4 0 2 0;
#X connect 4 0 7 0;
#X connect 5 0 0 1;
#X connect 5 0 0 0;
#X connect 6 0 8 0;
#X connect 7 0 5 0;
#X connect 8 0 5 1;
#X connect 9 0 20 0;
#X connect 10 0 9 1;
#X connect 11 0 2 1;
#X connect 11 0 12 0;
#X connect 12 0 0 0;
#X connect 12 0 0 1;
#X connect 13 0 9 0;
#X connect 14 0 11 0;
#X connect 15 0 11 0;
#X connect 16 0 4 0;
#X connect 16 0 8 1;
#X connect 17 0 11 0;
#X connect 18 0 19 1;
#X connect 19 0 10 0;
#X connect 20 0 12 1;
