#N canvas 217 368 611 382 10;
#X obj 274 259 dac~;
#X obj 19 148 vcf~ 0.01;
#X obj 220 179 *~;
#X obj 212 133 *~ -0.1;
#X obj 110 166 *~;
#X obj 151 112 noise~;
#X obj 150 136 *~;
#X obj 391 132 samphold~;
#X obj 386 105 wrap~;
#X obj 385 83 *~ -4;
#X obj 232 156 phasor~ 40;
#X obj 366 191 vcf~ 50;
#X msg 204 10 40;
#X msg 236 21 45;
#X msg 362 43 5.78;
#X obj 212 111 expr~ $v1<0.125;
#X msg 269 15 61.2;
#X msg 307 5 -58.2;
#X msg 400 44 -4.1;
#X obj 97 42 phasor~ -2.12;
#X obj 300 98 phasor~ -4.1;
#X msg 480 45 0.07;
#X msg 437 45 35.07;
#X obj 89 144 hip~ 100;
#X obj 401 162 *~ 22500;
#X msg 441 192 128;
#X msg 470 206 256;
#X msg 497 228 512;
#X msg 516 253 1024;
#X msg 506 158 22050;
#X msg 520 121 44100;
#X text 561 117 loud!;
#X connect 1 0 0 0;
#X connect 1 0 0 1;
#X connect 2 0 0 0;
#X connect 2 0 0 1;
#X connect 3 0 2 0;
#X connect 3 0 23 0;
#X connect 4 0 0 1;
#X connect 4 0 0 0;
#X connect 5 0 6 0;
#X connect 6 0 4 1;
#X connect 7 0 24 0;
#X connect 8 0 7 1;
#X connect 9 0 8 0;
#X connect 10 0 2 1;
#X connect 10 0 11 0;
#X connect 11 0 0 0;
#X connect 11 0 0 1;
#X connect 12 0 10 0;
#X connect 13 0 10 0;
#X connect 14 0 20 0;
#X connect 15 0 3 0;
#X connect 15 0 6 1;
#X connect 16 0 10 0;
#X connect 17 0 10 0;
#X connect 18 0 20 0;
#X connect 19 0 1 1;
#X connect 19 0 1 0;
#X connect 19 0 9 0;
#X connect 19 0 15 0;
#X connect 20 0 7 0;
#X connect 21 0 20 0;
#X connect 22 0 20 0;
#X connect 23 0 4 0;
#X connect 24 0 11 1;
#X connect 25 0 24 1;
#X connect 26 0 24 1;
#X connect 27 0 24 1;
#X connect 28 0 24 1;
#X connect 29 0 24 1;
#X connect 30 0 24 1;
