#N canvas 228 172 561 426 12;
#X obj 43 106 f;
#X obj 79 106 + 1;
#X obj 43 52 tgl 20 0 empty empty empty 17 7 0 10 -262144 -1 -1 1 1
;
#X floatatom 112 52 5 0 0 0 - - -;
#X obj 29 326 dac~;
#X obj 43 183 sin;
#X obj 43 208 + 2;
#X floatatom 104 132 5 0 0 0 - - -;
#X obj 42 260 * 64;
#X obj 43 81 metro 100;
#X obj 42 290 osc~;
#X text 149 131 the bigger this number \, the longer the 'loop';
#X text 136 -65 WARNING!! HIGH "HARSH" SOUNDS;
#X text 179 -31 TURN VOLUME DOWN;
#X obj 42 233 pow 13;
#X obj 43 156 mod 1024;
#X text 37 4 1 turn dsp on;
#X text 40 27 2 turn metro on... enjoy :-);
#X connect 0 0 1 0;
#X connect 0 0 15 0;
#X connect 1 0 0 1;
#X connect 2 0 9 0;
#X connect 3 0 9 1;
#X connect 5 0 6 0;
#X connect 6 0 14 0;
#X connect 7 0 15 1;
#X connect 8 0 10 0;
#X connect 9 0 0 0;
#X connect 10 0 4 1;
#X connect 10 0 4 0;
#X connect 14 0 8 0;
#X connect 15 0 5 0;
