#N canvas 566 28 536 320 10;
#X obj 10 143 cpole~;
#X obj 15 265 dac~;
#X text 209 5 Copyright oct.2011 par Mathieu BOUCHARD;
#X text 329 16 conçu pour 44100 Hz;
#X obj 66 195 *~ 0.2;
#X obj 9 27 rzero~ 1;
#X obj 33 69 expr~ 0.9998*cos($v1) \; 0.9998*sin($v1);
#X obj 32 47 delread~ \$0-a 100;
#X obj 65 235 delwrite~ \$0-a 100;
#X obj 9 7 phasor~ 10;
#X obj 66 215 +~ 1e-12;
#X connect 0 0 1 0;
#X connect 0 1 1 1;
#X connect 0 1 4 0;
#X connect 4 0 10 0;
#X connect 5 0 0 0;
#X connect 5 0 0 1;
#X connect 6 0 0 2;
#X connect 6 1 0 3;
#X connect 7 0 6 0;
#X connect 9 0 5 0;
#X connect 10 0 8 0;
