#N canvas 528 188 479 410 10;
#X obj 117 239 dac~;
#X obj 202 162 delwrite~ \$0-del 1000;
#X obj 79 127 vd~ \$0-del;
#X obj 158 57 samphold~;
#X obj 158 28 wrap~;
#X obj 158 125 osc~;
#X obj 158 5 *~ 400000;
#X obj 159 99 *~ 700;
#X obj 112 197 vcf~ 2;
#X obj 209 -25 phasor~ 2;
#X connect 2 0 8 0;
#X connect 3 0 7 0;
#X connect 4 0 3 0;
#X connect 5 0 1 0;
#X connect 6 0 4 0;
#X connect 7 0 5 0;
#X connect 7 0 2 0;
#X connect 7 0 8 1;
#X connect 8 0 1 0;
#X connect 8 0 0 0;
#X connect 8 1 0 1;
#X connect 9 0 3 1;
#X connect 9 0 6 0;
