#N canvas 537 87 598 566 10;
#X obj -149 369 dac~;
#X obj -125 61 tgl 15 0 empty empty empty 17 7 0 10 -262144 -1 -1 1
1;
#X floatatom -78 201 5 0 0 0 - - -;
#X obj -150 343 *~ 0.05;
#X obj -150 286 *~;
#X obj -169 248 tanh~;
#X obj -169 225 *~ 30;
#X obj -125 89 metro 100;
#X obj -125 177 osc~;
#X obj -79 256 *~ 0.92;
#X obj -78 231 delread~ \$0-a 12;
#X obj -125 134 random 1000;
#X obj -89 308 delwrite~ \$0-a 20;
#X connect 1 0 7 0;
#X connect 2 0 10 0;
#X connect 3 0 0 0;
#X connect 3 0 0 1;
#X connect 4 0 3 0;
#X connect 4 0 12 0;
#X connect 5 0 4 0;
#X connect 6 0 5 0;
#X connect 7 0 11 0;
#X connect 8 0 4 1;
#X connect 8 0 6 0;
#X connect 9 0 4 1;
#X connect 10 0 9 0;
#X connect 11 0 8 0;
