#N canvas 0 0 450 300 10;
#X obj 10 152 dac~;
#X obj 10 132 phasor~;
#X obj 10 92 phasor~;
#X obj 10 52 phasor~;
#X obj 10 32 *~ 440;
#X obj 10 72 *~ 440;
#X obj 10 112 *~ 440;
#X obj 10 12 phasor~ 1e-06;
#X connect 1 0 0 0;
#X connect 1 0 0 1;
#X connect 2 0 6 0;
#X connect 3 0 5 0;
#X connect 4 0 3 0;
#X connect 5 0 2 0;
#X connect 6 0 1 0;
#X connect 7 0 4 0;
