#N canvas 174 392 450 300 10;
#X obj 54 230 dac~;
#N canvas 299 491 450 300 stuff 1;
#X obj 55 148 samphold~;
#X obj 110 187 *~;
#X obj 123 253 vd~ \$0delay;
#X obj 288 79 block~ 1;
#X obj 124 280 outlet~;
#X obj 149 150 osc~;
#X obj 54 40 phasor~ 1.11803;
#X obj 162 48 phasor~ 1.41421;
#X obj 149 130 +~ 220;
#X obj 149 108 *~ 440;
#X obj 87 219 *~ 99;
#X obj 202 221 delwrite~ \$0delay 100;
#X obj 191 190 *~ 0.99;
#X connect 0 0 1 0;
#X connect 0 0 10 0;
#X connect 1 0 11 0;
#X connect 2 0 4 0;
#X connect 2 0 12 0;
#X connect 5 0 1 1;
#X connect 6 0 0 0;
#X connect 6 0 9 0;
#X connect 6 0 0 1;
#X connect 7 0 0 1;
#X connect 7 0 9 0;
#X connect 8 0 5 0;
#X connect 9 0 8 0;
#X connect 10 0 2 0;
#X connect 12 0 11 0;
#X restore 54 180 pd stuff;
#X connect 1 0 0 0;
#X connect 1 0 0 1;
