#N canvas 424 308 387 350 10;
#X obj 125 242 dac~;
#X obj 48 227 cos~;
#X obj 90 133 *~;
#X obj 52 53 phasor~ 1;
#X obj 131 23 +~ 1;
#X obj 4 138 *~ 0.36;
#X obj 164 -5 random 69;
#X obj 91 165 vd~ \$0delay;
#X obj 48 93 delwrite~ \$0delay 100;
#X obj 227 156 threshold~ 0.1 100 0 100;
#X connect 1 0 5 0;
#X connect 1 0 9 0;
#X connect 2 0 7 0;
#X connect 3 0 2 0;
#X connect 3 0 8 0;
#X connect 4 0 2 1;
#X connect 4 0 3 0;
#X connect 5 0 0 0;
#X connect 5 0 8 0;
#X connect 6 0 4 0;
#X connect 7 0 0 1;
#X connect 7 0 1 0;
#X connect 7 0 5 0;
#X connect 9 0 6 0;
