#N canvas 586 335 387 350 10;
#X obj 160 252 dac~;
#N canvas 826 407 450 300 stuff 1;
#X obj 48 227 cos~;
#X obj 90 133 *~;
#X obj 52 53 phasor~ 1;
#X obj 131 23 +~ 1;
#X obj 4 138 *~ 0.36;
#X obj 90 159 vd~ \$0delay;
#X obj 48 93 delwrite~ \$0delay 100;
#X obj 227 156 threshold~ 0.1 100 0 100;
#X obj 92 267 outlet~;
#X obj 166 269 outlet~;
#X obj 361 3 block~ 1;
#X obj 283 68 snapshot~;
#X obj 294 133 clip 0 69;
#X obj 286 89 abs;
#X obj 290 111 * 69;
#X connect 0 0 4 0;
#X connect 0 0 7 0;
#X connect 1 0 5 0;
#X connect 2 0 1 0;
#X connect 2 0 6 0;
#X connect 3 0 1 1;
#X connect 3 0 2 0;
#X connect 4 0 6 0;
#X connect 4 0 8 0;
#X connect 5 0 0 0;
#X connect 5 0 4 0;
#X connect 5 0 9 0;
#X connect 5 0 11 0;
#X connect 7 0 11 0;
#X connect 11 0 13 0;
#X connect 12 0 3 0;
#X connect 13 0 14 0;
#X connect 14 0 12 0;
#X restore 157 183 pd stuff;
#X connect 1 0 0 0;
#X connect 1 1 0 1;
