#N canvas 559 407 450 300 10;
#X obj 83 251 dac~;
#X obj 76 203 osc~;
#X obj 141 68 wrap~;
#X obj 121 127 vd~ \$0delay;
#X obj 131 234 delwrite~ \$0delay 1000;
#X obj 75 181 mtof~;
#X obj 68 33 phasor~ 0.707106;
#X obj 259 31 phasor~ 0.866025;
#X obj 75 158 *~ 35;
#X obj 143 103 *~ 550;
#X connect 1 0 0 0;
#X connect 1 0 4 0;
#X connect 2 0 8 0;
#X connect 2 0 9 0;
#X connect 3 0 8 0;
#X connect 3 0 0 1;
#X connect 5 0 1 0;
#X connect 6 0 2 0;
#X connect 6 0 8 0;
#X connect 7 0 2 0;
#X connect 7 0 4 0;
#X connect 7 0 9 0;
#X connect 8 0 5 0;
#X connect 9 0 3 0;
