#N canvas 648 99 315 256 10;
#X obj 41 85 noise~;
#X floatatom 84 42 5 0 0 0 - - -;
#X obj 34 108 snapshot~;
#X obj 34 226 dac~;
#X obj 34 42 tgl 15 0 empty empty empty 17 7 0 10 -262144 -1 -1 1 1
;
#X obj 60 198 sin~;
#X obj 34 62 metro 87;
#X obj 12 176 cos~;
#X text 27 6 1 turn dsp on;
#X text 27 20 2 turn metro on;
#X text 78 226 WARNING! Loud sounds!;
#X obj 43 152 osc~;
#X obj 43 130 * 200;
#X connect 0 0 2 0;
#X connect 1 0 6 1;
#X connect 2 0 7 0;
#X connect 2 0 12 0;
#X connect 4 0 6 0;
#X connect 5 0 3 1;
#X connect 6 0 2 0;
#X connect 7 0 5 0;
#X connect 7 0 3 0;
#X connect 11 0 3 1;
#X connect 11 0 3 0;
#X connect 12 0 11 0;
