#N canvas 213 211 345 286 10;
#X obj 121 212 dac~;
#X obj 19 123 vcf~ 0.01;
#X obj 220 154 *~;
#X obj 232 131 phasor~ 32;
#X obj 130 2 phasor~ -2.25;
#X obj 212 108 *~ -0.1;
#X obj 110 141 *~;
#X obj 151 87 noise~;
#X obj 89 119 hip~ 20;
#X obj 150 111 *~;
#X obj 212 86 expr~ $v1<0.5;
#X connect 1 0 0 0;
#X connect 1 0 0 1;
#X connect 2 0 0 0;
#X connect 2 0 0 1;
#X connect 3 0 2 1;
#X connect 4 0 1 1;
#X connect 4 0 1 0;
#X connect 4 0 10 0;
#X connect 5 0 2 0;
#X connect 5 0 8 0;
#X connect 6 0 0 1;
#X connect 6 0 0 0;
#X connect 7 0 9 0;
#X connect 8 0 6 0;
#X connect 9 0 6 1;
#X connect 10 0 5 0;
#X connect 10 0 9 1;
