#N canvas 565 49 515 240 10;
#X obj 50 97 samphold~;
#X obj 50 165 dac~;
#X obj 51 142 osc~;
#X obj 51 53 phasor~ 2;
#X obj 51 31 hradio 15 1 0 13 empty empty empty 0 -8 0 10 -262144 -1
-1 4;
#X obj 102 73 phasor~ 12;
#X obj 51 119 expr~ (1+$v1)*200*(1-$v2)*cos((1-$v2)*(20+(200*$v1)))
;
#X obj 149 52 hradio 15 1 0 13 empty empty empty 0 -8 0 10 -262144
-1 -1 4;
#X connect 0 0 6 0;
#X connect 2 0 1 0;
#X connect 2 0 1 1;
#X connect 3 0 0 0;
#X connect 4 0 3 0;
#X connect 4 0 3 1;
#X connect 5 0 0 1;
#X connect 5 0 6 1;
#X connect 6 0 2 0;
#X connect 7 0 5 1;
#X connect 7 0 5 0;
