#N canvas 366 143 208 224 10;
#X obj 65 188 dac~;
#X obj 73 111 mtof~;
#X obj 71 145 osc~;
#X obj 100 48 osc~ 8;
#X obj 31 48 osc~ 3.5;
#X obj 73 85 *~ 150;
#X connect 1 0 2 0;
#X connect 2 0 0 0;
#X connect 2 0 0 1;
#X connect 3 0 5 0;
#X connect 4 0 5 0;
#X connect 5 0 1 0;
