#N canvas 546 306 419 359 10;
#X obj 115 309 dac~;
#X obj 127 199 osc~;
#X obj 129 176 *~;
#X obj 111 20 phasor~ -1;
#X obj 208 85 samphold~;
#X obj 158 148 *~;
#X obj 196 252 delread~ \$0delay 750;
#X obj 80 88 *~;
#X obj 218 172 *~ 0.95;
#X obj 138 228 *~ 0.4;
#X obj 182 123 *~ 500;
#X obj 345 38 adc~;
#X obj 123 114 osc~ 440;
#X obj 245 222 delwrite~ \$0delay 1000;
#X connect 1 0 0 0;
#X connect 1 0 9 0;
#X connect 2 0 1 0;
#X connect 3 0 4 1;
#X connect 3 0 7 1;
#X connect 3 0 7 0;
#X connect 4 0 10 0;
#X connect 5 0 2 1;
#X connect 6 0 0 0;
#X connect 6 0 4 0;
#X connect 6 0 8 0;
#X connect 7 0 2 0;
#X connect 8 0 0 1;
#X connect 8 0 13 0;
#X connect 9 0 0 1;
#X connect 9 0 13 0;
#X connect 10 0 5 1;
#X connect 11 0 4 1;
#X connect 11 0 13 0;
#X connect 11 1 4 1;
#X connect 11 1 13 0;
#X connect 12 0 5 0;
