#N canvas 699 311 210 306 10;
#X obj 42 221 dac~;
#X obj 42 135 *~;
#X obj 32 33 samphold~;
#X obj 112 1 phasor~ -2;
#X obj 31 60 *~ 136.1;
#X obj 28 94 osc~;
#X obj 81 133 phasor~ 49676.5;
#X obj 29 2 phasor~ 1.74;
#X obj 98 71 hip~ 1;
#X obj 52 169 vcf~ 0.001;
#X connect 1 0 9 0;
#X connect 2 0 4 0;
#X connect 3 0 2 1;
#X connect 3 0 8 0;
#X connect 4 0 5 0;
#X connect 5 0 1 0;
#X connect 6 0 9 1;
#X connect 7 0 2 0;
#X connect 8 0 1 1;
#X connect 9 0 0 0;
#X connect 9 0 0 1;
