#N canvas 791 410 606 352 10;
#X declare -lib py;
#X obj 107 277 print;
#X obj 165 277 print END;
#X obj 382 144 ggee/getdir;
#X obj 382 167 cyclone/prepend cd;
#X msg 249 275 cd /Users/megrimm/Desktop/make && make -C oneline~;
#X obj 249 251 cyclone/prepend set;
#X obj 249 197 cyclone/prepend;
#X obj 250 164 cyclone/prepend &&;
#X obj 107 254 pyx 1 2 make.shellx;
#X obj 43 182 import py;
#X msg 250 90 make -C oneline~;
#X obj 250 9 r findreplace;
#X obj 250 31 t b b;
#X obj 277 56 s \$0-getdir-make;
#X obj 381 119 r \$0-getdir-make;
#X connect 2 0 3 0;
#X connect 3 0 6 1;
#X connect 5 0 4 0;
#X connect 6 0 5 0;
#X connect 6 0 8 1;
#X connect 7 0 6 0;
#X connect 8 0 0 0;
#X connect 8 1 1 0;
#X connect 10 0 7 0;
#X connect 11 0 12 0;
#X connect 12 0 10 0;
#X connect 12 1 13 0;
#X connect 14 0 2 0;
