#N canvas 377 73 464 502 10;
#X text 150 477 Bryan Jurish <moocow@ling.uni-potsdam.de>;
#X text 10 377 SEE ALSO:;
#X obj 16 283 dac~;
#X text 264 202 Click here to start;
#X text 15 30 INLETS:;
#X text 223 30 OUTLETS:;
#X msg 307 270 \; holmes-play 0;
#X obj 25 396 ratts;
#X msg 307 219 \; pd dsp 1 \; holmes-play 1;
#X obj 171 397 holmes-phones;
#X obj 16 199 guessphones;
#X obj 70 397 phones2holmes;
#X text 110 98 any message: convert to phonetic-string symbols;
#X msg 16 100 hello ratts;
#X msg 25 126 list this is a text;
#X text 177 127 "list" selector is silently ignored;
#X text 179 156 ... ditto for "symbol";
#X text 31 45 1 - English text;
#X text 240 45 1 - phonetic strings (symbols);
#X text 26 422 "Automatic translation of English text to phonetics
by means of letter-to-sound-rules" \, NRL Report 7948 \, Naval Research
Laboratory \, Washington \, D.C. \, January 21st 1976;
#X msg 40 156 symbol foobarbaz;
#X text 67 4 guessphones : NRL english text to phoneme converter;
#N canvas 0 0 331 295 guessphones-help-guts 0;
#X obj 49 62 phones2holmes;
#X obj 49 190 holmes;
#X obj 134 218 klatt~;
#X obj 62 147 metro 10;
#X obj 171 41 r holmes-play;
#X obj 134 241 outlet~;
#X obj 49 39 inlet;
#X connect 0 0 1 0;
#X connect 1 0 2 0;
#X connect 2 0 5 0;
#X connect 3 0 1 0;
#X connect 4 0 3 0;
#X connect 4 0 2 1;
#X connect 6 0 0 0;
#X restore 16 255 pd guessphones-help-guts;
#X obj 26 232 print guessed-phones;
#X text 11 327 ACKNOWLEDGEMENTS:;
#X text 30 344 Based on code by Nick Ing-Simmons.;
#X connect 10 0 22 0;
#X connect 10 0 23 0;
#X connect 13 0 10 0;
#X connect 14 0 10 0;
#X connect 20 0 10 0;
#X connect 22 0 2 0;
#X connect 22 0 2 1;
