#N canvas 34 30 477 405 10;
#X text 63 24 INLETS:;
#X text 252 27 OUTLETS:;
#X text 50 9 holmes-feat : phonetic feature extraction for holmes;
#X text 81 38 1 - element names;
#X text 268 40 1 - feature lists;
#X text 175 373 Bryan Jurish <moocow@ling.uni-potsdam.de>;
#X text 54 317 SEE ALSO:;
#X obj 67 337 ratts;
#X obj 54 211 holmes-feat;
#X obj 54 237 print holmes-features;
#X text 163 92 "anything" is assumed to be an element name;
#X text 162 122 "list" selector is ignored;
#X text 164 161 "symbol" \, too;
#X msg 55 93 M;
#X msg 66 123 list OO;
#X msg 74 160 symbol U;
#X text 50 275 ACKNOWLEDGEMENTS:;
#X text 69 292 Based on code by Nick Ing-Simmons.;
#X obj 109 337 holmes;
#X obj 159 337 holmes-features;
#X connect 8 0 9 0;
#X connect 13 0 8 0;
#X connect 14 0 8 0;
#X connect 15 0 8 0;
