#N canvas 30 0 577 591 10;
#X text 64 1 rattshash : (auto-)resizable hash table;
#X text 279 569 Bryan Jurish <moocow@ling.uni-potsdam.de>;
#X text 26 453 ACKNOWLEDGEMENTS:;
#X obj 35 541 ratts;
#X obj 284 541 maphash example;
#X msg 45 91 map moo cow;
#X msg 51 112 moo;
#X text 165 91 "map" sets associations for keys;
#X text 164 138 "unmap" deletes association for given key;
#X msg 56 135 unmap moo;
#X obj 83 541 rattshread x;
#X obj 180 541 rattshwrite x;
#X text 26 523 SEE ALSO:;
#X text 37 468 The "rattshash" \, "rattshread" \, and "rattshwrite"
externals are based on the "maphash" object by Orm Finnendahl \, itself
based on the "mapper" object by Travis Newhouse.;
#X text 420 20 INLETS:;
#X text 431 33 1 - control messages;
#X text 422 54 OUTLETS:;
#X text 433 69 1 - values / sizes;
#X msg 77 228 hash size;
#X msg 80 267 hash resize;
#X msg 82 295 hash clear;
#X text 203 226 "hash size" reports current hashtable size;
#X text 201 248 "hash resize SIZE" resizes the hashtable;
#X text 202 269 "hash resize" auto-resizes the hashtable;
#X text 205 296 "hash clear" clears the hashtable;
#X text 207 331 "hash autosize" gets/sets auto-resize flag;
#X msg 83 323 hash autosize;
#X msg 84 342 hash autosize 0;
#X text 71 20 ARGUMENTS:;
#X text 99 33 NAME : global name of object (symbol);
#X text 98 46 SIZE : initial size of hashtable (optional);
#X text 35 59 autosize BOOL : set initial autosize flag (optional)
;
#X obj 45 416 print rattshash-help;
#X obj 45 390 rattshash rattshash-help 797;
#X msg 77 248 hash resize 1597;
#X text 165 113 "anything" gets the value associated with a key;
#X msg 68 179 load test.txt cr;
#X text 204 180 "load FILENAME FORMAT" loads a text file;
#X msg 73 206 hash count;
#X text 203 207 "hash count" reports current number of entries;
#X connect 5 0 33 0;
#X connect 6 0 33 0;
#X connect 9 0 33 0;
#X connect 18 0 33 0;
#X connect 19 0 33 0;
#X connect 20 0 33 0;
#X connect 26 0 33 0;
#X connect 27 0 33 0;
#X connect 33 0 32 0;
#X connect 34 0 33 0;
#X connect 36 0 33 0;
#X connect 38 0 33 0;
