#N canvas 266 22 507 481 10;
#X text 198 452 Bryan Jurish <moocow@ling.uni-potsdam.de>;
#X text 31 331 ACKNOWLEDGEMENTS:;
#X obj 40 419 ratts;
#X msg 43 104 moo;
#X msg 37 83 0;
#X text 92 91 "anything" gets associated key value;
#X obj 179 419 rattshwrite x;
#X text 31 401 SEE ALSO:;
#X text 42 346 The "rattshash" \, "rattshread" \, and "rattshwrite"
externals are based on the "maphash" object by Orm Finnendahl \, itself
based on the "mapper" object by Travis Newhouse.;
#X text 368 25 INLETS:;
#X text 368 62 OUTLETS:;
#X text 26 30 ARGUMENTS:;
#X obj 37 252 rattshread rattshread-help;
#X obj 281 304 rattshash rattshread-help;
#X obj 88 419 rattshash x;
#X text 64 1 rattshread : (auto-)resizable hash table reader;
#X obj 281 262 loadbang;
#X text 379 77 1 - values;
#X text 379 40 1 - keys;
#X msg 55 137 dump;
#X text 99 135 "dump" dumps all key-value pairs;
#X text 54 43 NAME : name of rattshash object (symbol);
#X msg 281 283 map 0 bar \, map moo foo;
#X msg 63 179 set rattshash-help;
#X msg 65 202 set rattshread-help;
#X text 214 187 "set" sets source table name;
#X obj 37 303 print rattshread-found;
#X obj 45 278 print rattshread-notfound;
#X text 379 91 2 - missing keys;
#X connect 3 0 12 0;
#X connect 4 0 12 0;
#X connect 12 0 26 0;
#X connect 12 1 27 0;
#X connect 16 0 22 0;
#X connect 19 0 12 0;
#X connect 22 0 13 0;
#X connect 23 0 12 0;
#X connect 24 0 12 0;
